%TF.GenerationSoftware,KiCad,Pcbnew,7.0.1-0*%
%TF.CreationDate,2023-04-04T18:33:11-07:00*%
%TF.ProjectId,ULD_Test_Board,554c445f-5465-4737-945f-426f6172642e,A*%
%TF.SameCoordinates,Original*%
%TF.FileFunction,Copper,L1,Top*%
%TF.FilePolarity,Positive*%
%FSLAX46Y46*%
G04 Gerber Fmt 4.6, Leading zero omitted, Abs format (unit mm)*
G04 Created by KiCad (PCBNEW 7.0.1-0) date 2023-04-04 18:33:11*
%MOMM*%
%LPD*%
G01*
G04 APERTURE LIST*
G04 Aperture macros list*
%AMRoundRect*
0 Rectangle with rounded corners*
0 $1 Rounding radius*
0 $2 $3 $4 $5 $6 $7 $8 $9 X,Y pos of 4 corners*
0 Add a 4 corners polygon primitive as box body*
4,1,4,$2,$3,$4,$5,$6,$7,$8,$9,$2,$3,0*
0 Add four circle primitives for the rounded corners*
1,1,$1+$1,$2,$3*
1,1,$1+$1,$4,$5*
1,1,$1+$1,$6,$7*
1,1,$1+$1,$8,$9*
0 Add four rect primitives between the rounded corners*
20,1,$1+$1,$2,$3,$4,$5,0*
20,1,$1+$1,$4,$5,$6,$7,0*
20,1,$1+$1,$6,$7,$8,$9,0*
20,1,$1+$1,$8,$9,$2,$3,0*%
G04 Aperture macros list end*
%TA.AperFunction,SMDPad,CuDef*%
%ADD10RoundRect,0.250000X0.325000X0.450000X-0.325000X0.450000X-0.325000X-0.450000X0.325000X-0.450000X0*%
%TD*%
%TA.AperFunction,SMDPad,CuDef*%
%ADD11RoundRect,0.250000X-0.300000X0.300000X-0.300000X-0.300000X0.300000X-0.300000X0.300000X0.300000X0*%
%TD*%
%TA.AperFunction,SMDPad,CuDef*%
%ADD12RoundRect,0.075000X0.650000X0.075000X-0.650000X0.075000X-0.650000X-0.075000X0.650000X-0.075000X0*%
%TD*%
%TA.AperFunction,SMDPad,CuDef*%
%ADD13R,1.651000X2.845000*%
%TD*%
%TA.AperFunction,SMDPad,CuDef*%
%ADD14RoundRect,0.250000X0.300000X0.300000X-0.300000X0.300000X-0.300000X-0.300000X0.300000X-0.300000X0*%
%TD*%
%TA.AperFunction,SMDPad,CuDef*%
%ADD15R,1.200000X1.200000*%
%TD*%
%TA.AperFunction,SMDPad,CuDef*%
%ADD16R,1.500000X1.600000*%
%TD*%
%TA.AperFunction,SMDPad,CuDef*%
%ADD17R,1.560000X0.650000*%
%TD*%
%TA.AperFunction,SMDPad,CuDef*%
%ADD18RoundRect,0.250000X-0.400000X-1.075000X0.400000X-1.075000X0.400000X1.075000X-0.400000X1.075000X0*%
%TD*%
%TA.AperFunction,SMDPad,CuDef*%
%ADD19RoundRect,0.250000X0.300000X-0.300000X0.300000X0.300000X-0.300000X0.300000X-0.300000X-0.300000X0*%
%TD*%
%TA.AperFunction,SMDPad,CuDef*%
%ADD20RoundRect,0.250000X-0.337500X-0.475000X0.337500X-0.475000X0.337500X0.475000X-0.337500X0.475000X0*%
%TD*%
%TA.AperFunction,SMDPad,CuDef*%
%ADD21RoundRect,0.250000X-0.450000X0.350000X-0.450000X-0.350000X0.450000X-0.350000X0.450000X0.350000X0*%
%TD*%
%TA.AperFunction,SMDPad,CuDef*%
%ADD22RoundRect,0.250000X1.075000X-0.400000X1.075000X0.400000X-1.075000X0.400000X-1.075000X-0.400000X0*%
%TD*%
%TA.AperFunction,SMDPad,CuDef*%
%ADD23R,3.700000X1.200000*%
%TD*%
%TA.AperFunction,SMDPad,CuDef*%
%ADD24RoundRect,0.250000X-0.412500X-1.100000X0.412500X-1.100000X0.412500X1.100000X-0.412500X1.100000X0*%
%TD*%
%TA.AperFunction,SMDPad,CuDef*%
%ADD25RoundRect,0.250000X-1.100000X0.412500X-1.100000X-0.412500X1.100000X-0.412500X1.100000X0.412500X0*%
%TD*%
%TA.AperFunction,SMDPad,CuDef*%
%ADD26RoundRect,0.250000X0.350000X0.450000X-0.350000X0.450000X-0.350000X-0.450000X0.350000X-0.450000X0*%
%TD*%
%TA.AperFunction,SMDPad,CuDef*%
%ADD27RoundRect,0.250000X0.337500X0.475000X-0.337500X0.475000X-0.337500X-0.475000X0.337500X-0.475000X0*%
%TD*%
%TA.AperFunction,ViaPad*%
%ADD28C,0.508000*%
%TD*%
%TA.AperFunction,Conductor*%
%ADD29C,0.304800*%
%TD*%
%TA.AperFunction,Conductor*%
%ADD30C,0.152400*%
%TD*%
G04 APERTURE END LIST*
D10*
%TO.P,D1,1,K*%
%TO.N,Net-(D1-K)*%
X41135000Y-47352000D03*
%TO.P,D1,2,A*%
%TO.N,Net-(D1-A)*%
X39085000Y-47352000D03*
%TD*%
D11*
%TO.P,D3,1,K*%
%TO.N,Net-(D3-K)*%
X31973000Y-32233000D03*
%TO.P,D3,2,A*%
%TO.N,Net-(D2-K)*%
X31973000Y-35033000D03*
%TD*%
D12*
%TO.P,U1,1,VCC*%
%TO.N,Net-(U1-MPPC)*%
X47458000Y-43517000D03*
%TO.P,U1,2,RUN*%
%TO.N,VDD*%
X47458000Y-43017000D03*
%TO.P,U1,3,MPPC*%
%TO.N,Net-(U1-MPPC)*%
X47458000Y-42517000D03*
%TO.P,U1,4,GND*%
%TO.N,GND*%
X47458000Y-42017000D03*
%TO.P,U1,5,FB*%
%TO.N,FB*%
X47458000Y-41517000D03*
%TO.P,U1,6,NC*%
%TO.N,GND*%
X47458000Y-41017000D03*
%TO.P,U1,7,NC*%
X47458000Y-40517000D03*
%TO.P,U1,8,PWM*%
X47458000Y-40017000D03*
%TO.P,U1,9,PGOOD*%
%TO.N,Net-(D1-K)*%
X43158000Y-40017000D03*
%TO.P,U1,10,VOUT*%
%TO.N,VD*%
X43158000Y-40517000D03*
%TO.P,U1,11,BST2*%
%TO.N,Net-(U1-BST2)*%
X43158000Y-41017000D03*
%TO.P,U1,12,SW2*%
%TO.N,Net-(U1-SW2)*%
X43158000Y-41517000D03*
%TO.P,U1,13,PGND*%
%TO.N,GND*%
X43158000Y-42017000D03*
%TO.P,U1,14,SW1*%
%TO.N,Net-(U1-SW1)*%
X43158000Y-42517000D03*
%TO.P,U1,15,BST1*%
%TO.N,Net-(U1-BST1)*%
X43158000Y-43017000D03*
%TO.P,U1,16,VIN*%
%TO.N,VDD*%
X43158000Y-43517000D03*
D13*
%TO.P,U1,17,EP*%
%TO.N,GND*%
X45308000Y-41767000D03*
%TD*%
D14*
%TO.P,D8,1,K*%
%TO.N,GNDA*%
X38453000Y-29823000D03*
%TO.P,D8,2,A*%
%TO.N,Net-(D7-K)*%
X35653000Y-29823000D03*
%TD*%
D15*
%TO.P,RV1,1,1*%
%TO.N,GND*%
X52832000Y-39338000D03*
D16*
%TO.P,RV1,2,2*%
%TO.N,Net-(U2--)*%
X49582000Y-38338000D03*
D15*
%TO.P,RV1,3,3*%
%TO.N,unconnected-(RV1-Pad3)*%
X52832000Y-37338000D03*
%TD*%
D17*
%TO.P,U2,1*%
%TO.N,FB*%
X52255000Y-43159000D03*
%TO.P,U2,2,V-*%
%TO.N,GND*%
X52255000Y-42209000D03*
%TO.P,U2,3,+*%
%TO.N,GNDA*%
X52255000Y-41259000D03*
%TO.P,U2,4,-*%
%TO.N,Net-(U2--)*%
X49555000Y-41259000D03*
%TO.P,U2,5,V+*%
%TO.N,Net-(U1-MPPC)*%
X49555000Y-43159000D03*
%TD*%
D18*
%TO.P,R2,1*%
%TO.N,GNDA*%
X43123000Y-37319000D03*
%TO.P,R2,2*%
%TO.N,GND*%
X46223000Y-37319000D03*
%TD*%
D19*
%TO.P,D2,1,K*%
%TO.N,Net-(D2-K)*%
X34513000Y-35033000D03*
%TO.P,D2,2,A*%
%TO.N,Net-(D2-A)*%
X34513000Y-32233000D03*
%TD*%
D14*
%TO.P,D6,1,K*%
%TO.N,Net-(D6-K)*%
X29309000Y-29823000D03*
%TO.P,D6,2,A*%
%TO.N,Net-(D5-K)*%
X26509000Y-29823000D03*
%TD*%
D20*
%TO.P,C3,1*%
%TO.N,Net-(U1-SW2)*%
X39072500Y-40751000D03*
%TO.P,C3,2*%
%TO.N,Net-(U1-BST2)*%
X41147500Y-40751000D03*
%TD*%
D14*
%TO.P,D7,1,K*%
%TO.N,Net-(D7-K)*%
X33881000Y-29823000D03*
%TO.P,D7,2,A*%
%TO.N,Net-(D6-K)*%
X31081000Y-29823000D03*
%TD*%
D21*
%TO.P,R3,1*%
%TO.N,Net-(U2--)*%
X54334000Y-41148000D03*
%TO.P,R3,2*%
%TO.N,FB*%
X54334000Y-43148000D03*
%TD*%
D19*
%TO.P,D4,1,K*%
%TO.N,Net-(D4-K)*%
X29433000Y-35033000D03*
%TO.P,D4,2,A*%
%TO.N,Net-(D3-K)*%
X29433000Y-32233000D03*
%TD*%
D22*
%TO.P,R4,1*%
%TO.N,/VD_BRIDGE*%
X37434000Y-35183000D03*
%TO.P,R4,2*%
%TO.N,Net-(D2-A)*%
X37434000Y-32083000D03*
%TD*%
D23*
%TO.P,L1,1,1*%
%TO.N,Net-(U1-SW1)*%
X35792000Y-43421000D03*
%TO.P,L1,2,2*%
%TO.N,Net-(U1-SW2)*%
X35792000Y-40621000D03*
%TD*%
D24*
%TO.P,C1,1*%
%TO.N,VDD*%
X43119500Y-45704000D03*
%TO.P,C1,2*%
%TO.N,GND*%
X46244500Y-45704000D03*
%TD*%
%TO.P,C5,1*%
%TO.N,GND*%
X38039500Y-38081000D03*
%TO.P,C5,2*%
%TO.N,VD*%
X41164500Y-38081000D03*
%TD*%
D25*
%TO.P,C4,1*%
%TO.N,Net-(U1-MPPC)*%
X48873000Y-45030500D03*
%TO.P,C4,2*%
%TO.N,GND*%
X48873000Y-48155500D03*
%TD*%
D11*
%TO.P,D5,1,K*%
%TO.N,Net-(D5-K)*%
X26893000Y-32233000D03*
%TO.P,D5,2,A*%
%TO.N,Net-(D4-K)*%
X26893000Y-35033000D03*
%TD*%
D26*
%TO.P,R1,1*%
%TO.N,VDD*%
X41110000Y-45320000D03*
%TO.P,R1,2*%
%TO.N,Net-(D1-A)*%
X39110000Y-45320000D03*
%TD*%
D27*
%TO.P,C2,1*%
%TO.N,Net-(U1-BST1)*%
X41147500Y-43291000D03*
%TO.P,C2,2*%
%TO.N,Net-(U1-SW1)*%
X39072500Y-43291000D03*
%TD*%
D28*
%TO.N,VDD*%
X44196000Y-44069000D03*
X46228000Y-43815000D03*
%TO.N,GND*%
X44831000Y-36195000D03*
X39497000Y-37719000D03*
X44831000Y-36830000D03*
X39497000Y-38354000D03*
X44831000Y-38100000D03*
X39497000Y-37084000D03*
X44831000Y-37465000D03*
X39497000Y-38989000D03*
%TO.N,Net-(D1-K)*%
X45466000Y-39878000D03*
X42164000Y-47371000D03*
%TO.N,GNDA*%
X51054000Y-41275000D03*
X43688000Y-35560000D03*
%TD*%
D29*
%TO.N,VDD*%
X43158000Y-45665500D02*
X43119500Y-45704000D01*
D30*
X46228000Y-43815000D02*
X46482000Y-43561000D01*
D29*
X43158000Y-43517000D02*
X43158000Y-44069000D01*
X42735500Y-45320000D02*
X43119500Y-45704000D01*
D30*
X46482000Y-43116500D02*
X46581500Y-43017000D01*
X44196000Y-44069000D02*
X43158000Y-44069000D01*
X46581500Y-43017000D02*
X47458000Y-43017000D01*
X46482000Y-43561000D02*
X46482000Y-43116500D01*
D29*
X41110000Y-45320000D02*
X42735500Y-45320000D01*
X43158000Y-44069000D02*
X43158000Y-45665500D01*
%TO.N,Net-(U1-BST1)*%
X43158000Y-43017000D02*
X41421500Y-43017000D01*
X41421500Y-43017000D02*
X41147500Y-43291000D01*
%TO.N,Net-(U1-SW1)*%
X38942500Y-43421000D02*
X39072500Y-43291000D01*
X43158000Y-42517000D02*
X41970606Y-42517000D01*
X35792000Y-43421000D02*
X38942500Y-43421000D01*
X39072500Y-43185500D02*
X39072500Y-43291000D01*
X41970606Y-42517000D02*
X41714806Y-42261200D01*
X39996800Y-42261200D02*
X39072500Y-43185500D01*
X41714806Y-42261200D02*
X39996800Y-42261200D01*
%TO.N,Net-(U1-SW2)*%
X41978606Y-41517000D02*
X41714806Y-41780800D01*
X43158000Y-41517000D02*
X41978606Y-41517000D01*
X41714806Y-41780800D02*
X39996800Y-41780800D01*
X38942500Y-40621000D02*
X39072500Y-40751000D01*
X39996800Y-41780800D02*
X39072500Y-40856500D01*
X39072500Y-40856500D02*
X39072500Y-40751000D01*
X35792000Y-40621000D02*
X38942500Y-40621000D01*
%TO.N,Net-(U1-BST2)*%
X41413500Y-41017000D02*
X41147500Y-40751000D01*
X43158000Y-41017000D02*
X41413500Y-41017000D01*
%TO.N,Net-(U1-MPPC)*%
X49197000Y-43517000D02*
X49555000Y-43159000D01*
X47458000Y-43517000D02*
X48746000Y-43517000D01*
D30*
X48480000Y-42517000D02*
X49122000Y-43159000D01*
D29*
X48873000Y-45030500D02*
X48873000Y-43517000D01*
D30*
X47458000Y-42517000D02*
X48480000Y-42517000D01*
D29*
X48873000Y-43517000D02*
X49197000Y-43517000D01*
D30*
X49122000Y-43159000D02*
X49555000Y-43159000D01*
D29*
X48746000Y-43517000D02*
X48873000Y-43517000D01*
%TO.N,VD*%
X35560000Y-38100000D02*
X34290000Y-38100000D01*
X42395882Y-40517000D02*
X43158000Y-40517000D01*
X41164500Y-37354500D02*
X40132000Y-36322000D01*
X42349400Y-39497000D02*
X44831000Y-39497000D01*
X42128200Y-39718200D02*
X42128200Y-40249318D01*
X42128200Y-40249318D02*
X42395882Y-40517000D01*
X44831000Y-39497000D02*
X44958000Y-39370000D01*
X37338000Y-36322000D02*
X35560000Y-38100000D01*
X41164500Y-38081000D02*
X41164500Y-37354500D01*
X41164500Y-38081000D02*
X41164500Y-38754500D01*
X40132000Y-36322000D02*
X37338000Y-36322000D01*
X41164500Y-38754500D02*
X42128200Y-39718200D01*
X42128200Y-39718200D02*
X42349400Y-39497000D01*
%TO.N,Net-(D1-K)*%
X43158000Y-40017000D02*
X45327000Y-40017000D01*
X42164000Y-47371000D02*
X41154000Y-47371000D01*
X41154000Y-47371000D02*
X41135000Y-47352000D01*
X45327000Y-40017000D02*
X45466000Y-39878000D01*
%TO.N,Net-(D1-A)*%
X39085000Y-47352000D02*
X39085000Y-45345000D01*
X39085000Y-45345000D02*
X39110000Y-45320000D01*
D30*
%TO.N,GNDA*%
X52239000Y-41275000D02*
X52255000Y-41259000D01*
X51054000Y-41275000D02*
X52239000Y-41275000D01*
%TO.N,Net-(U2--)*%
X49582000Y-38338000D02*
X49582000Y-41232000D01*
X53572000Y-40497000D02*
X54223000Y-41148000D01*
X50016000Y-41259000D02*
X50778000Y-40497000D01*
X50778000Y-40497000D02*
X53572000Y-40497000D01*
X49555000Y-41259000D02*
X50016000Y-41259000D01*
X49582000Y-41232000D02*
X49555000Y-41259000D01*
X54223000Y-41148000D02*
X54334000Y-41148000D01*
%TO.N,FB*%
X51281000Y-43159000D02*
X50651000Y-42529000D01*
X48369000Y-41517000D02*
X47458000Y-41517000D01*
X50651000Y-42529000D02*
X49381000Y-42529000D01*
X49381000Y-42529000D02*
X48369000Y-41517000D01*
X54334000Y-43148000D02*
X54323000Y-43159000D01*
X52255000Y-43159000D02*
X51281000Y-43159000D01*
X54323000Y-43159000D02*
X52255000Y-43159000D01*
D29*
%TO.N,Net-(D2-K)*%
X34513000Y-35033000D02*
X31973000Y-35033000D01*
%TO.N,Net-(D3-K)*%
X31973000Y-32233000D02*
X29433000Y-32233000D01*
%TO.N,Net-(D4-K)*%
X29433000Y-35033000D02*
X26893000Y-35033000D01*
%TO.N,Net-(D5-K)*%
X26893000Y-31347000D02*
X26893000Y-32233000D01*
X26509000Y-30963000D02*
X26893000Y-31347000D01*
X26509000Y-29823000D02*
X26509000Y-30963000D01*
%TO.N,Net-(D6-K)*%
X29309000Y-29823000D02*
X31081000Y-29823000D01*
%TO.N,Net-(D7-K)*%
X33881000Y-29823000D02*
X35653000Y-29823000D01*
%TO.N,Net-(D2-A)*%
X37434000Y-32083000D02*
X34663000Y-32083000D01*
X34663000Y-32083000D02*
X34513000Y-32233000D01*
%TO.N,/VD_BRIDGE*%
X36699000Y-35183000D02*
X35814000Y-36068000D01*
X30988000Y-39624000D02*
X30734000Y-39878000D01*
X30734000Y-39878000D02*
X29972000Y-39878000D01*
X33274000Y-36068000D02*
X30988000Y-38354000D01*
X37434000Y-35183000D02*
X36699000Y-35183000D01*
X30988000Y-38354000D02*
X30988000Y-39624000D01*
X35814000Y-36068000D02*
X33274000Y-36068000D01*
%TD*%
%TA.AperFunction,Conductor*%
%TO.N,Net-(D7-K)*%
G36*
X36770400Y-25791575D02*
G01*
X36797925Y-25819100D01*
X36808000Y-25856700D01*
X36808000Y-29883800D01*
X36797925Y-29921400D01*
X36770400Y-29948925D01*
X36732800Y-29959000D01*
X32819200Y-29959000D01*
X32781600Y-29948925D01*
X32754075Y-29921400D01*
X32744000Y-29883800D01*
X32744000Y-25856700D01*
X32754075Y-25819100D01*
X32781600Y-25791575D01*
X32819200Y-25781500D01*
X36732800Y-25781500D01*
X36770400Y-25791575D01*
G37*
%TD.AperFunction*%
%TD*%
%TA.AperFunction,Conductor*%
%TO.N,VD*%
G36*
X51270400Y-25791575D02*
G01*
X51297925Y-25819100D01*
X51308000Y-25856700D01*
X51308000Y-37008800D01*
X51297925Y-37046400D01*
X51270400Y-37073925D01*
X51232800Y-37084000D01*
X48514000Y-37084000D01*
X48514000Y-39548800D01*
X48503925Y-39586400D01*
X48476400Y-39613925D01*
X48438800Y-39624000D01*
X45818591Y-39624000D01*
X45789813Y-39618276D01*
X45765419Y-39601976D01*
X45708151Y-39544708D01*
X45708150Y-39544707D01*
X45593305Y-39486190D01*
X45466000Y-39466028D01*
X45338694Y-39486190D01*
X45223848Y-39544708D01*
X45195216Y-39573340D01*
X45166580Y-39601976D01*
X45142187Y-39618276D01*
X45113409Y-39624000D01*
X44525200Y-39624000D01*
X44487600Y-39613925D01*
X44460075Y-39586400D01*
X44450000Y-39548800D01*
X44450000Y-38937200D01*
X44460075Y-38899600D01*
X44487600Y-38872075D01*
X44525200Y-38862000D01*
X47244000Y-38862000D01*
X47244000Y-35306000D01*
X46049200Y-35306000D01*
X46011600Y-35295925D01*
X45984075Y-35268400D01*
X45974000Y-35230800D01*
X45974000Y-25856700D01*
X45984075Y-25819100D01*
X46011600Y-25791575D01*
X46049200Y-25781500D01*
X51232800Y-25781500D01*
X51270400Y-25791575D01*
G37*
%TD.AperFunction*%
%TD*%
%TA.AperFunction,Conductor*%
%TO.N,/VD_BRIDGE*%
G36*
X32728400Y-36586075D02*
G01*
X32755925Y-36613600D01*
X32766000Y-36651200D01*
X32766000Y-39294800D01*
X32755925Y-39332400D01*
X32728400Y-39359925D01*
X32690800Y-39370000D01*
X30809200Y-39370000D01*
X30771600Y-39359925D01*
X30744075Y-39332400D01*
X30734000Y-39294800D01*
X30734000Y-36651200D01*
X30744075Y-36613600D01*
X30771600Y-36586075D01*
X30809200Y-36576000D01*
X32690800Y-36576000D01*
X32728400Y-36586075D01*
G37*
%TD.AperFunction*%
%TD*%
%TA.AperFunction,Conductor*%
%TO.N,/VD_BRIDGE*%
G36*
X30188400Y-39634075D02*
G01*
X30215925Y-39661600D01*
X30226000Y-39699200D01*
X30226000Y-42088800D01*
X30215925Y-42126400D01*
X30188400Y-42153925D01*
X30150800Y-42164000D01*
X27761200Y-42164000D01*
X27723600Y-42153925D01*
X27696075Y-42126400D01*
X27686000Y-42088800D01*
X27686000Y-39699200D01*
X27696075Y-39661600D01*
X27723600Y-39634075D01*
X27761200Y-39624000D01*
X30150800Y-39624000D01*
X30188400Y-39634075D01*
G37*
%TD.AperFunction*%
%TD*%
%TA.AperFunction,Conductor*%
%TO.N,Net-(D6-K)*%
G36*
X32198400Y-25791575D02*
G01*
X32225925Y-25819100D01*
X32236000Y-25856700D01*
X32236000Y-29883800D01*
X32225925Y-29921400D01*
X32198400Y-29948925D01*
X32160800Y-29959000D01*
X28247200Y-29959000D01*
X28209600Y-29948925D01*
X28182075Y-29921400D01*
X28172000Y-29883800D01*
X28172000Y-25856700D01*
X28182075Y-25819100D01*
X28209600Y-25791575D01*
X28247200Y-25781500D01*
X32160800Y-25781500D01*
X32198400Y-25791575D01*
G37*
%TD.AperFunction*%
%TD*%
%TA.AperFunction,Conductor*%
%TO.N,VD*%
G36*
X35268400Y-36586075D02*
G01*
X35295925Y-36613600D01*
X35306000Y-36651200D01*
X35306000Y-39294800D01*
X35295925Y-39332400D01*
X35268400Y-39359925D01*
X35230800Y-39370000D01*
X33349200Y-39370000D01*
X33311600Y-39359925D01*
X33284075Y-39332400D01*
X33274000Y-39294800D01*
X33274000Y-36651200D01*
X33284075Y-36613600D01*
X33311600Y-36586075D01*
X33349200Y-36576000D01*
X35230800Y-36576000D01*
X35268400Y-36586075D01*
G37*
%TD.AperFunction*%
%TD*%
%TA.AperFunction,Conductor*%
%TO.N,GNDA*%
G36*
X44889400Y-25791575D02*
G01*
X44916925Y-25819100D01*
X44927000Y-25856700D01*
X44927000Y-35211800D01*
X44916925Y-35249400D01*
X44889400Y-35276925D01*
X44851800Y-35287000D01*
X44165000Y-35287000D01*
X44165000Y-39021800D01*
X44154925Y-39059400D01*
X44127400Y-39086925D01*
X44089800Y-39097000D01*
X42418148Y-39097000D01*
X42389370Y-39091276D01*
X42364974Y-39074974D01*
X42155026Y-38865026D01*
X42138724Y-38840630D01*
X42133000Y-38811852D01*
X42133000Y-35287000D01*
X39414200Y-35287000D01*
X39376600Y-35276925D01*
X39349075Y-35249400D01*
X39339000Y-35211800D01*
X39339000Y-30715000D01*
X37382200Y-30715000D01*
X37344600Y-30704925D01*
X37317075Y-30677400D01*
X37307000Y-30639800D01*
X37307000Y-25856700D01*
X37317075Y-25819100D01*
X37344600Y-25791575D01*
X37382200Y-25781500D01*
X44851800Y-25781500D01*
X44889400Y-25791575D01*
G37*
%TD.AperFunction*%
%TD*%
%TA.AperFunction,Conductor*%
%TO.N,Net-(D5-K)*%
G36*
X27626400Y-25791575D02*
G01*
X27653925Y-25819100D01*
X27664000Y-25856700D01*
X27664000Y-29883800D01*
X27653925Y-29921400D01*
X27626400Y-29948925D01*
X27588800Y-29959000D01*
X25856700Y-29959000D01*
X25819100Y-29948925D01*
X25791575Y-29921400D01*
X25781500Y-29883800D01*
X25781500Y-25856700D01*
X25791575Y-25819100D01*
X25819100Y-25791575D01*
X25856700Y-25781500D01*
X27588800Y-25781500D01*
X27626400Y-25791575D01*
G37*
%TD.AperFunction*%
%TD*%
%TA.AperFunction,Conductor*%
%TO.N,VDD*%
G36*
X44412400Y-43571075D02*
G01*
X44439925Y-43598600D01*
X44450000Y-43636200D01*
X44450000Y-47371000D01*
X45009800Y-47371000D01*
X45047400Y-47381075D01*
X45074925Y-47408600D01*
X45085000Y-47446200D01*
X45085000Y-49708800D01*
X45074925Y-49746400D01*
X45047400Y-49773925D01*
X45009800Y-49784000D01*
X42874200Y-49784000D01*
X42836600Y-49773925D01*
X42809075Y-49746400D01*
X42799000Y-49708800D01*
X42799000Y-46228000D01*
X40461200Y-46228000D01*
X40423600Y-46217925D01*
X40396075Y-46190400D01*
X40386000Y-46152800D01*
X40386000Y-44525200D01*
X40396075Y-44487600D01*
X40423600Y-44460075D01*
X40461200Y-44450000D01*
X42037000Y-44450000D01*
X42037000Y-43636200D01*
X42047075Y-43598600D01*
X42074600Y-43571075D01*
X42112200Y-43561000D01*
X44374800Y-43561000D01*
X44412400Y-43571075D01*
G37*
%TD.AperFunction*%
%TD*%
%TA.AperFunction,Conductor*%
%TO.N,GND*%
G36*
X56095900Y-25791575D02*
G01*
X56123425Y-25819100D01*
X56133500Y-25856700D01*
X56133500Y-50343300D01*
X56123425Y-50380900D01*
X56095900Y-50408425D01*
X56058300Y-50418500D01*
X25856700Y-50418500D01*
X25819100Y-50408425D01*
X25791575Y-50380900D01*
X25781500Y-50343300D01*
X25781500Y-47833709D01*
X38357100Y-47833709D01*
X38372042Y-47928054D01*
X38372043Y-47928055D01*
X38429984Y-48041771D01*
X38520229Y-48132016D01*
X38633944Y-48189956D01*
X38633945Y-48189957D01*
X38728291Y-48204900D01*
X38728292Y-48204900D01*
X39441708Y-48204900D01*
X39441709Y-48204900D01*
X39488881Y-48197428D01*
X39536055Y-48189957D01*
X39649771Y-48132016D01*
X39740016Y-48041771D01*
X39797957Y-47928055D01*
X39812900Y-47833708D01*
X39812900Y-46870292D01*
X39807422Y-46835708D01*
X39797957Y-46775945D01*
X39740016Y-46662229D01*
X39649771Y-46571984D01*
X39592912Y-46543013D01*
X39536054Y-46514042D01*
X39453736Y-46501005D01*
X39421299Y-46487569D01*
X39398496Y-46460871D01*
X39390300Y-46426731D01*
X39390300Y-46248100D01*
X39400375Y-46210500D01*
X39427900Y-46182975D01*
X39465500Y-46172900D01*
X39491709Y-46172900D01*
X39538881Y-46165428D01*
X39586055Y-46157957D01*
X39699771Y-46100016D01*
X39790016Y-46009771D01*
X39847957Y-45896055D01*
X39855901Y-45845900D01*
X39862900Y-45801709D01*
X39862900Y-44838291D01*
X39847957Y-44743945D01*
X39790016Y-44630229D01*
X39699771Y-44539984D01*
X39605489Y-44491945D01*
X39586054Y-44482042D01*
X39491709Y-44467100D01*
X39491708Y-44467100D01*
X38728292Y-44467100D01*
X38728291Y-44467100D01*
X38633945Y-44482042D01*
X38520227Y-44539985D01*
X38429985Y-44630227D01*
X38372042Y-44743945D01*
X38357100Y-44838291D01*
X38357100Y-45801709D01*
X38372042Y-45896054D01*
X38372043Y-45896055D01*
X38429984Y-46009771D01*
X38520229Y-46100016D01*
X38623818Y-46152797D01*
X38633945Y-46157957D01*
X38716264Y-46170995D01*
X38748701Y-46184431D01*
X38771504Y-46211129D01*
X38779700Y-46245269D01*
X38779700Y-46426731D01*
X38771504Y-46460871D01*
X38748701Y-46487569D01*
X38716264Y-46501005D01*
X38633945Y-46514042D01*
X38520227Y-46571985D01*
X38429985Y-46662227D01*
X38372042Y-46775945D01*
X38357100Y-46870291D01*
X38357100Y-47833709D01*
X25781500Y-47833709D01*
X25781500Y-35364709D01*
X26190100Y-35364709D01*
X26205042Y-35459054D01*
X26222920Y-35494141D01*
X26262984Y-35572771D01*
X26353229Y-35663016D01*
X26443584Y-35709054D01*
X26466945Y-35720957D01*
X26561291Y-35735900D01*
X26561292Y-35735900D01*
X27224708Y-35735900D01*
X27224709Y-35735900D01*
X27271881Y-35728428D01*
X27319055Y-35720957D01*
X27432771Y-35663016D01*
X27523016Y-35572771D01*
X27580957Y-35459055D01*
X27585647Y-35429444D01*
X27590036Y-35401736D01*
X27603472Y-35369298D01*
X27630170Y-35346496D01*
X27664310Y-35338300D01*
X28661690Y-35338300D01*
X28695830Y-35346496D01*
X28722528Y-35369298D01*
X28735964Y-35401736D01*
X28745042Y-35459053D01*
X28745042Y-35459054D01*
X28745043Y-35459055D01*
X28802984Y-35572771D01*
X28893229Y-35663016D01*
X28983584Y-35709054D01*
X29006945Y-35720957D01*
X29101291Y-35735900D01*
X29101292Y-35735900D01*
X29764708Y-35735900D01*
X29764709Y-35735900D01*
X29811881Y-35728428D01*
X29859055Y-35720957D01*
X29972771Y-35663016D01*
X30063016Y-35572771D01*
X30120957Y-35459055D01*
X30135900Y-35364708D01*
X30135900Y-34701292D01*
X30120957Y-34606945D01*
X30063016Y-34493229D01*
X29972771Y-34402984D01*
X29915913Y-34374013D01*
X29859054Y-34345042D01*
X29764709Y-34330100D01*
X29764708Y-34330100D01*
X29101292Y-34330100D01*
X29101291Y-34330100D01*
X29006945Y-34345042D01*
X28893227Y-34402985D01*
X28802985Y-34493227D01*
X28745042Y-34606946D01*
X28735964Y-34664264D01*
X28722528Y-34696702D01*
X28695830Y-34719504D01*
X28661690Y-34727700D01*
X27664310Y-34727700D01*
X27630170Y-34719504D01*
X27603472Y-34696702D01*
X27590036Y-34664264D01*
X27580957Y-34606946D01*
X27580957Y-34606945D01*
X27523016Y-34493229D01*
X27432771Y-34402984D01*
X27375913Y-34374013D01*
X27319054Y-34345042D01*
X27224709Y-34330100D01*
X27224708Y-34330100D01*
X26561292Y-34330100D01*
X26561291Y-34330100D01*
X26466945Y-34345042D01*
X26353227Y-34402985D01*
X26262985Y-34493227D01*
X26205042Y-34606945D01*
X26190100Y-34701291D01*
X26190100Y-35364709D01*
X25781500Y-35364709D01*
X25781500Y-30446835D01*
X25794173Y-30405056D01*
X25827922Y-30377359D01*
X25871371Y-30373080D01*
X25909874Y-30393661D01*
X25969229Y-30453016D01*
X26082945Y-30510957D01*
X26094592Y-30512801D01*
X26140264Y-30520036D01*
X26172702Y-30533472D01*
X26195504Y-30560170D01*
X26203700Y-30594310D01*
X26203700Y-30900931D01*
X26201210Y-30916195D01*
X26203620Y-30968319D01*
X26203700Y-30971792D01*
X26203700Y-30991293D01*
X26204046Y-30993146D01*
X26205244Y-31003473D01*
X26206662Y-31034110D01*
X26211883Y-31045935D01*
X26217009Y-31062489D01*
X26219385Y-31075197D01*
X26235529Y-31101270D01*
X26240381Y-31110475D01*
X26242881Y-31116136D01*
X26252766Y-31138526D01*
X26261904Y-31147664D01*
X26272665Y-31161249D01*
X26279471Y-31172240D01*
X26279472Y-31172241D01*
X26279473Y-31172242D01*
X26303942Y-31190720D01*
X26311798Y-31197557D01*
X26528625Y-31414384D01*
X26548573Y-31450003D01*
X26546971Y-31490796D01*
X26524290Y-31524740D01*
X26487216Y-31541832D01*
X26466945Y-31545042D01*
X26353227Y-31602985D01*
X26262985Y-31693227D01*
X26205042Y-31806945D01*
X26190100Y-31901291D01*
X26190100Y-32564709D01*
X26205042Y-32659054D01*
X26205043Y-32659055D01*
X26262984Y-32772771D01*
X26353229Y-32863016D01*
X26466944Y-32920956D01*
X26466945Y-32920957D01*
X26561291Y-32935900D01*
X26561292Y-32935900D01*
X27224708Y-32935900D01*
X27224709Y-32935900D01*
X27271881Y-32928428D01*
X27319055Y-32920957D01*
X27432771Y-32863016D01*
X27523016Y-32772771D01*
X27580957Y-32659055D01*
X27595900Y-32564709D01*
X28730100Y-32564709D01*
X28745042Y-32659054D01*
X28745043Y-32659055D01*
X28802984Y-32772771D01*
X28893229Y-32863016D01*
X29006944Y-32920956D01*
X29006945Y-32920957D01*
X29101291Y-32935900D01*
X29101292Y-32935900D01*
X29764708Y-32935900D01*
X29764709Y-32935900D01*
X29811881Y-32928428D01*
X29859055Y-32920957D01*
X29972771Y-32863016D01*
X30063016Y-32772771D01*
X30120957Y-32659055D01*
X30124023Y-32639693D01*
X30130036Y-32601736D01*
X30143472Y-32569298D01*
X30170170Y-32546496D01*
X30204310Y-32538300D01*
X31201690Y-32538300D01*
X31235830Y-32546496D01*
X31262528Y-32569298D01*
X31275964Y-32601736D01*
X31285042Y-32659053D01*
X31285042Y-32659054D01*
X31285043Y-32659055D01*
X31342984Y-32772771D01*
X31433229Y-32863016D01*
X31546944Y-32920956D01*
X31546945Y-32920957D01*
X31641291Y-32935900D01*
X31641292Y-32935900D01*
X32304708Y-32935900D01*
X32304709Y-32935900D01*
X32351881Y-32928428D01*
X32399055Y-32920957D01*
X32512771Y-32863016D01*
X32603016Y-32772771D01*
X32660957Y-32659055D01*
X32675900Y-32564709D01*
X33810100Y-32564709D01*
X33825042Y-32659054D01*
X33825043Y-32659055D01*
X33882984Y-32772771D01*
X33973229Y-32863016D01*
X34086944Y-32920956D01*
X34086945Y-32920957D01*
X34181291Y-32935900D01*
X34181292Y-32935900D01*
X34844708Y-32935900D01*
X34844709Y-32935900D01*
X34891881Y-32928428D01*
X34939055Y-32920957D01*
X35052771Y-32863016D01*
X35143016Y-32772771D01*
X35200957Y-32659055D01*
X35215900Y-32564708D01*
X35215900Y-32463500D01*
X35225975Y-32425900D01*
X35253500Y-32398375D01*
X35291100Y-32388300D01*
X35880900Y-32388300D01*
X35918500Y-32398375D01*
X35946025Y-32425900D01*
X35956100Y-32463500D01*
X35956100Y-32514709D01*
X35971042Y-32609054D01*
X35971043Y-32609055D01*
X36028984Y-32722771D01*
X36119229Y-32813016D01*
X36217356Y-32863014D01*
X36232945Y-32870957D01*
X36327291Y-32885900D01*
X36327292Y-32885900D01*
X38540708Y-32885900D01*
X38540709Y-32885900D01*
X38587881Y-32878428D01*
X38635055Y-32870957D01*
X38748771Y-32813016D01*
X38839016Y-32722771D01*
X38896957Y-32609055D01*
X38911900Y-32514708D01*
X38911900Y-31651292D01*
X38896957Y-31556945D01*
X38839016Y-31443229D01*
X38748771Y-31352984D01*
X38681506Y-31318711D01*
X38635054Y-31295042D01*
X38540709Y-31280100D01*
X38540708Y-31280100D01*
X36327292Y-31280100D01*
X36327291Y-31280100D01*
X36232945Y-31295042D01*
X36119227Y-31352985D01*
X36028985Y-31443227D01*
X35971042Y-31556945D01*
X35956100Y-31651291D01*
X35956100Y-31702500D01*
X35946025Y-31740100D01*
X35918500Y-31767625D01*
X35880900Y-31777700D01*
X35232139Y-31777700D01*
X35192848Y-31766619D01*
X35165136Y-31736641D01*
X35143015Y-31693228D01*
X35052772Y-31602985D01*
X35052772Y-31602984D01*
X35052771Y-31602984D01*
X34995912Y-31574013D01*
X34939054Y-31545042D01*
X34844709Y-31530100D01*
X34844708Y-31530100D01*
X34181292Y-31530100D01*
X34181291Y-31530100D01*
X34086945Y-31545042D01*
X33973227Y-31602985D01*
X33882985Y-31693227D01*
X33825042Y-31806945D01*
X33810100Y-31901291D01*
X33810100Y-32564709D01*
X32675900Y-32564709D01*
X32675900Y-32564708D01*
X32675900Y-31901292D01*
X32660957Y-31806945D01*
X32603016Y-31693229D01*
X32512771Y-31602984D01*
X32455912Y-31574013D01*
X32399054Y-31545042D01*
X32304709Y-31530100D01*
X32304708Y-31530100D01*
X31641292Y-31530100D01*
X31641291Y-31530100D01*
X31546945Y-31545042D01*
X31433227Y-31602985D01*
X31342985Y-31693227D01*
X31285042Y-31806946D01*
X31275964Y-31864264D01*
X31262528Y-31896702D01*
X31235830Y-31919504D01*
X31201690Y-31927700D01*
X30204310Y-31927700D01*
X30170170Y-31919504D01*
X30143472Y-31896702D01*
X30130036Y-31864264D01*
X30120957Y-31806946D01*
X30120957Y-31806945D01*
X30063016Y-31693229D01*
X29972771Y-31602984D01*
X29915912Y-31574013D01*
X29859054Y-31545042D01*
X29764709Y-31530100D01*
X29764708Y-31530100D01*
X29101292Y-31530100D01*
X29101291Y-31530100D01*
X29006945Y-31545042D01*
X28893227Y-31602985D01*
X28802985Y-31693227D01*
X28745042Y-31806945D01*
X28730100Y-31901291D01*
X28730100Y-32564709D01*
X27595900Y-32564709D01*
X27595900Y-32564708D01*
X27595900Y-31901292D01*
X27580957Y-31806945D01*
X27523016Y-31693229D01*
X27432771Y-31602984D01*
X27319055Y-31545043D01*
X27319054Y-31545042D01*
X27319053Y-31545042D01*
X27261736Y-31535964D01*
X27229298Y-31522528D01*
X27206496Y-31495830D01*
X27198300Y-31461690D01*
X27198300Y-31409069D01*
X27200789Y-31393804D01*
X27200609Y-31389912D01*
X27200610Y-31389910D01*
X27198380Y-31341681D01*
X27198300Y-31338208D01*
X27198300Y-31318714D01*
X27198300Y-31318711D01*
X27197952Y-31316853D01*
X27196754Y-31306527D01*
X27195338Y-31275891D01*
X27190113Y-31264059D01*
X27184990Y-31247511D01*
X27182615Y-31234803D01*
X27166470Y-31208729D01*
X27161614Y-31199515D01*
X27149234Y-31171475D01*
X27140091Y-31162332D01*
X27129332Y-31148749D01*
X27128660Y-31147664D01*
X27122527Y-31137758D01*
X27098056Y-31119278D01*
X27090201Y-31112442D01*
X26836326Y-30858567D01*
X26820024Y-30834171D01*
X26814300Y-30805393D01*
X26814300Y-30594310D01*
X26822496Y-30560170D01*
X26845298Y-30533472D01*
X26877736Y-30520036D01*
X26915693Y-30514023D01*
X26935055Y-30510957D01*
X27048771Y-30453016D01*
X27139016Y-30362771D01*
X27196957Y-30249055D01*
X27207840Y-30180336D01*
X27221277Y-30147899D01*
X27247975Y-30125096D01*
X27282115Y-30116900D01*
X27588797Y-30116900D01*
X27588800Y-30116900D01*
X27629668Y-30111520D01*
X27667268Y-30101445D01*
X27738052Y-30060577D01*
X27765577Y-30033052D01*
X27779117Y-30009599D01*
X27806642Y-29982075D01*
X27844242Y-29972000D01*
X27991758Y-29972000D01*
X28029358Y-29982075D01*
X28056883Y-30009600D01*
X28070424Y-30033054D01*
X28097944Y-30060574D01*
X28097946Y-30060575D01*
X28097948Y-30060577D01*
X28168732Y-30101445D01*
X28206332Y-30111520D01*
X28247200Y-30116900D01*
X28535885Y-30116900D01*
X28570025Y-30125096D01*
X28596723Y-30147899D01*
X28610159Y-30180336D01*
X28621042Y-30249054D01*
X28621043Y-30249055D01*
X28678984Y-30362771D01*
X28769229Y-30453016D01*
X28882945Y-30510957D01*
X28977291Y-30525900D01*
X28977292Y-30525900D01*
X29640708Y-30525900D01*
X29640709Y-30525900D01*
X29687881Y-30518428D01*
X29735055Y-30510957D01*
X29848771Y-30453016D01*
X29939016Y-30362771D01*
X29996957Y-30249055D01*
X30000023Y-30229693D01*
X30006036Y-30191736D01*
X30019472Y-30159298D01*
X30046170Y-30136496D01*
X30080310Y-30128300D01*
X30309690Y-30128300D01*
X30343830Y-30136496D01*
X30370528Y-30159298D01*
X30383964Y-30191736D01*
X30393042Y-30249053D01*
X30393042Y-30249054D01*
X30393043Y-30249055D01*
X30450984Y-30362771D01*
X30541229Y-30453016D01*
X30654945Y-30510957D01*
X30749291Y-30525900D01*
X30749292Y-30525900D01*
X31412708Y-30525900D01*
X31412709Y-30525900D01*
X31459881Y-30518428D01*
X31507055Y-30510957D01*
X31620771Y-30453016D01*
X31711016Y-30362771D01*
X31768957Y-30249055D01*
X31779840Y-30180336D01*
X31793277Y-30147899D01*
X31819975Y-30125096D01*
X31854115Y-30116900D01*
X32160797Y-30116900D01*
X32160800Y-30116900D01*
X32201668Y-30111520D01*
X32239268Y-30101445D01*
X32310052Y-30060577D01*
X32337577Y-30033052D01*
X32351117Y-30009599D01*
X32378642Y-29982075D01*
X32416242Y-29972000D01*
X32563758Y-29972000D01*
X32601358Y-29982075D01*
X32628883Y-30009600D01*
X32642424Y-30033054D01*
X32669944Y-30060574D01*
X32669946Y-30060575D01*
X32669948Y-30060577D01*
X32740732Y-30101445D01*
X32778332Y-30111520D01*
X32819200Y-30116900D01*
X33107885Y-30116900D01*
X33142025Y-30125096D01*
X33168723Y-30147899D01*
X33182159Y-30180336D01*
X33193042Y-30249054D01*
X33193043Y-30249055D01*
X33250984Y-30362771D01*
X33341229Y-30453016D01*
X33454945Y-30510957D01*
X33549291Y-30525900D01*
X33549292Y-30525900D01*
X34212708Y-30525900D01*
X34212709Y-30525900D01*
X34259881Y-30518428D01*
X34307055Y-30510957D01*
X34420771Y-30453016D01*
X34511016Y-30362771D01*
X34568957Y-30249055D01*
X34572023Y-30229693D01*
X34578036Y-30191736D01*
X34591472Y-30159298D01*
X34618170Y-30136496D01*
X34652310Y-30128300D01*
X34881690Y-30128300D01*
X34915830Y-30136496D01*
X34942528Y-30159298D01*
X34955964Y-30191736D01*
X34965042Y-30249053D01*
X34965042Y-30249054D01*
X34965043Y-30249055D01*
X35022984Y-30362771D01*
X35113229Y-30453016D01*
X35226945Y-30510957D01*
X35321291Y-30525900D01*
X35321292Y-30525900D01*
X35984708Y-30525900D01*
X35984709Y-30525900D01*
X36031881Y-30518428D01*
X36079055Y-30510957D01*
X36192771Y-30453016D01*
X36283016Y-30362771D01*
X36340957Y-30249055D01*
X36351840Y-30180336D01*
X36365277Y-30147899D01*
X36391975Y-30125096D01*
X36426115Y-30116900D01*
X36732797Y-30116900D01*
X36732800Y-30116900D01*
X36773668Y-30111520D01*
X36811268Y-30101445D01*
X36882052Y-30060577D01*
X36909577Y-30033052D01*
X36923117Y-30009599D01*
X36950642Y-29982075D01*
X36988242Y-29972000D01*
X37073900Y-29972000D01*
X37111500Y-29982075D01*
X37139025Y-30009600D01*
X37149100Y-30047200D01*
X37149100Y-30639797D01*
X37154480Y-30680668D01*
X37164555Y-30718268D01*
X37205425Y-30789055D01*
X37232944Y-30816574D01*
X37232946Y-30816575D01*
X37232948Y-30816577D01*
X37303732Y-30857445D01*
X37341332Y-30867520D01*
X37382200Y-30872900D01*
X39105900Y-30872900D01*
X39143500Y-30882975D01*
X39171025Y-30910500D01*
X39181100Y-30948100D01*
X39181100Y-35211797D01*
X39186480Y-35252668D01*
X39196555Y-35290268D01*
X39237425Y-35361055D01*
X39264944Y-35388574D01*
X39264946Y-35388575D01*
X39264948Y-35388577D01*
X39335732Y-35429445D01*
X39373332Y-35439520D01*
X39414200Y-35444900D01*
X41899900Y-35444900D01*
X41937500Y-35454975D01*
X41965025Y-35482500D01*
X41975100Y-35520100D01*
X41975100Y-36627765D01*
X41962427Y-36669544D01*
X41928678Y-36697241D01*
X41885229Y-36701520D01*
X41846726Y-36680939D01*
X41816772Y-36650985D01*
X41816771Y-36650984D01*
X41736985Y-36610331D01*
X41703054Y-36593042D01*
X41608709Y-36578100D01*
X41608708Y-36578100D01*
X40851007Y-36578100D01*
X40822229Y-36572376D01*
X40797833Y-36556074D01*
X40391771Y-36150012D01*
X40382736Y-36137455D01*
X40344157Y-36102285D01*
X40341646Y-36099886D01*
X40327877Y-36086117D01*
X40326325Y-36085054D01*
X40318171Y-36078596D01*
X40295504Y-36057933D01*
X40295502Y-36057932D01*
X40283452Y-36053264D01*
X40268123Y-36045185D01*
X40257453Y-36037876D01*
X40257451Y-36037875D01*
X40257449Y-36037874D01*
X40227610Y-36030856D01*
X40217664Y-36027777D01*
X40192433Y-36018003D01*
X40189070Y-36016700D01*
X40189069Y-36016700D01*
X40176146Y-36016700D01*
X40158930Y-36014703D01*
X40146344Y-36011743D01*
X40115977Y-36015979D01*
X40105589Y-36016700D01*
X38826635Y-36016700D01*
X38784856Y-36004027D01*
X38757159Y-35970278D01*
X38752880Y-35926829D01*
X38773461Y-35888326D01*
X38798845Y-35862942D01*
X38839016Y-35822771D01*
X38896957Y-35709055D01*
X38911900Y-35614708D01*
X38911900Y-34751292D01*
X38908163Y-34727700D01*
X38896957Y-34656945D01*
X38871481Y-34606946D01*
X38839016Y-34543229D01*
X38748771Y-34452984D01*
X38691913Y-34424013D01*
X38635054Y-34395042D01*
X38540709Y-34380100D01*
X38540708Y-34380100D01*
X36327292Y-34380100D01*
X36327291Y-34380100D01*
X36232945Y-34395042D01*
X36119227Y-34452985D01*
X36028985Y-34543227D01*
X35971042Y-34656945D01*
X35956100Y-34751291D01*
X35956100Y-35462993D01*
X35950376Y-35491771D01*
X35934074Y-35516167D01*
X35709567Y-35740674D01*
X35685171Y-35756976D01*
X35656393Y-35762700D01*
X35134635Y-35762700D01*
X35092856Y-35750027D01*
X35065159Y-35716278D01*
X35060880Y-35672829D01*
X35081461Y-35634326D01*
X35101079Y-35614708D01*
X35143016Y-35572771D01*
X35200957Y-35459055D01*
X35215900Y-35364708D01*
X35215900Y-34701292D01*
X35200957Y-34606945D01*
X35143016Y-34493229D01*
X35052771Y-34402984D01*
X34995913Y-34374013D01*
X34939054Y-34345042D01*
X34844709Y-34330100D01*
X34844708Y-34330100D01*
X34181292Y-34330100D01*
X34181291Y-34330100D01*
X34086945Y-34345042D01*
X33973227Y-34402985D01*
X33882985Y-34493227D01*
X33825042Y-34606946D01*
X33815964Y-34664264D01*
X33802528Y-34696702D01*
X33775830Y-34719504D01*
X33741690Y-34727700D01*
X32744310Y-34727700D01*
X32710170Y-34719504D01*
X32683472Y-34696702D01*
X32670036Y-34664264D01*
X32660957Y-34606946D01*
X32660957Y-34606945D01*
X32603016Y-34493229D01*
X32512771Y-34402984D01*
X32455913Y-34374013D01*
X32399054Y-34345042D01*
X32304709Y-34330100D01*
X32304708Y-34330100D01*
X31641292Y-34330100D01*
X31641291Y-34330100D01*
X31546945Y-34345042D01*
X31433227Y-34402985D01*
X31342985Y-34493227D01*
X31285042Y-34606945D01*
X31270100Y-34701291D01*
X31270100Y-35364709D01*
X31285042Y-35459054D01*
X31302920Y-35494141D01*
X31342984Y-35572771D01*
X31433229Y-35663016D01*
X31523584Y-35709054D01*
X31546945Y-35720957D01*
X31641291Y-35735900D01*
X31641292Y-35735900D01*
X32304708Y-35735900D01*
X32304709Y-35735900D01*
X32351881Y-35728428D01*
X32399055Y-35720957D01*
X32512771Y-35663016D01*
X32603016Y-35572771D01*
X32660957Y-35459055D01*
X32665647Y-35429444D01*
X32670036Y-35401736D01*
X32683472Y-35369298D01*
X32710170Y-35346496D01*
X32744310Y-35338300D01*
X33741690Y-35338300D01*
X33775830Y-35346496D01*
X33802528Y-35369298D01*
X33815964Y-35401736D01*
X33825042Y-35459053D01*
X33882985Y-35572772D01*
X33944539Y-35634326D01*
X33965120Y-35672829D01*
X33960841Y-35716278D01*
X33933144Y-35750027D01*
X33891365Y-35762700D01*
X33336069Y-35762700D01*
X33320804Y-35760210D01*
X33316910Y-35760390D01*
X33276127Y-35762275D01*
X33268681Y-35762620D01*
X33265208Y-35762700D01*
X33245711Y-35762700D01*
X33243852Y-35763047D01*
X33233527Y-35764244D01*
X33202889Y-35765662D01*
X33191064Y-35770883D01*
X33174514Y-35776008D01*
X33161803Y-35778384D01*
X33135734Y-35794526D01*
X33126523Y-35799381D01*
X33098474Y-35811766D01*
X33089329Y-35820910D01*
X33075752Y-35831664D01*
X33064759Y-35838471D01*
X33046279Y-35862942D01*
X33039443Y-35870796D01*
X32514164Y-36396076D01*
X32489771Y-36412376D01*
X32460993Y-36418100D01*
X30809200Y-36418100D01*
X30778548Y-36422135D01*
X30768331Y-36423480D01*
X30730731Y-36433555D01*
X30659944Y-36474425D01*
X30632425Y-36501944D01*
X30591555Y-36572731D01*
X30585863Y-36593972D01*
X30581480Y-36610332D01*
X30576100Y-36651200D01*
X30576100Y-39294800D01*
X30581480Y-39335668D01*
X30591555Y-39373268D01*
X30618981Y-39420771D01*
X30637373Y-39452625D01*
X30636963Y-39452861D01*
X30650593Y-39476464D01*
X30650599Y-39515383D01*
X30631148Y-39549092D01*
X30629584Y-39550657D01*
X30605182Y-39566971D01*
X30576393Y-39572700D01*
X30381478Y-39572700D01*
X30352700Y-39566976D01*
X30328304Y-39550674D01*
X30300055Y-39522425D01*
X30287858Y-39515383D01*
X30229268Y-39481555D01*
X30191668Y-39471480D01*
X30150800Y-39466100D01*
X27761200Y-39466100D01*
X27730549Y-39470134D01*
X27720331Y-39471480D01*
X27682731Y-39481555D01*
X27611944Y-39522425D01*
X27584425Y-39549944D01*
X27543555Y-39620731D01*
X27541803Y-39627268D01*
X27533480Y-39658332D01*
X27528100Y-39699200D01*
X27528100Y-42088800D01*
X27533480Y-42129668D01*
X27543555Y-42167268D01*
X27578228Y-42227323D01*
X27584425Y-42238055D01*
X27611944Y-42265574D01*
X27611946Y-42265575D01*
X27611948Y-42265577D01*
X27682732Y-42306445D01*
X27720332Y-42316520D01*
X27761200Y-42321900D01*
X30150797Y-42321900D01*
X30150800Y-42321900D01*
X30191668Y-42316520D01*
X30229268Y-42306445D01*
X30300052Y-42265577D01*
X30327577Y-42238052D01*
X30368445Y-42167268D01*
X30378520Y-42129668D01*
X30383900Y-42088800D01*
X30383900Y-40258500D01*
X30393975Y-40220900D01*
X30421500Y-40193375D01*
X30459100Y-40183300D01*
X30671931Y-40183300D01*
X30687195Y-40185789D01*
X30691087Y-40185609D01*
X30691090Y-40185610D01*
X30739318Y-40183380D01*
X30742792Y-40183300D01*
X30762283Y-40183300D01*
X30762289Y-40183300D01*
X30764146Y-40182952D01*
X30774467Y-40181754D01*
X30805109Y-40180338D01*
X30816938Y-40175114D01*
X30833489Y-40169989D01*
X30846197Y-40167615D01*
X30872262Y-40151474D01*
X30881473Y-40146618D01*
X30909525Y-40134234D01*
X30918667Y-40125090D01*
X30932250Y-40114332D01*
X30943242Y-40107527D01*
X30961726Y-40083049D01*
X30968550Y-40075208D01*
X31159990Y-39883768D01*
X31172544Y-39874736D01*
X31175169Y-39871855D01*
X31175171Y-39871855D01*
X31207706Y-39836164D01*
X31210063Y-39833695D01*
X31223883Y-39819877D01*
X31224946Y-39818324D01*
X31231407Y-39810165D01*
X31252067Y-39787504D01*
X31256735Y-39775454D01*
X31264820Y-39760115D01*
X31272124Y-39749454D01*
X31279144Y-39719602D01*
X31282221Y-39709665D01*
X31293300Y-39681070D01*
X31293300Y-39668142D01*
X31295297Y-39650926D01*
X31298256Y-39638344D01*
X31294789Y-39613489D01*
X31300951Y-39571669D01*
X31328701Y-39539781D01*
X31369268Y-39527900D01*
X32690797Y-39527900D01*
X32690800Y-39527900D01*
X32731668Y-39522520D01*
X32769268Y-39512445D01*
X32840052Y-39471577D01*
X32867577Y-39444052D01*
X32888623Y-39407599D01*
X32916148Y-39380075D01*
X32953748Y-39370000D01*
X33086252Y-39370000D01*
X33123852Y-39380075D01*
X33151377Y-39407600D01*
X33172423Y-39444053D01*
X33199944Y-39471574D01*
X33199946Y-39471575D01*
X33199948Y-39471577D01*
X33270732Y-39512445D01*
X33308332Y-39522520D01*
X33349200Y-39527900D01*
X35230797Y-39527900D01*
X35230800Y-39527900D01*
X35271668Y-39522520D01*
X35309268Y-39512445D01*
X35380052Y-39471577D01*
X35407577Y-39444052D01*
X35448445Y-39373268D01*
X35458520Y-39335668D01*
X35463900Y-39294800D01*
X35463900Y-38481873D01*
X35473403Y-38445281D01*
X35499512Y-38417937D01*
X35535626Y-38406753D01*
X35554499Y-38405880D01*
X35565319Y-38405379D01*
X35568792Y-38405300D01*
X35588283Y-38405300D01*
X35588289Y-38405300D01*
X35590146Y-38404952D01*
X35600467Y-38403754D01*
X35631109Y-38402338D01*
X35642938Y-38397114D01*
X35659489Y-38391989D01*
X35672197Y-38389615D01*
X35698262Y-38373474D01*
X35707473Y-38368618D01*
X35735525Y-38356234D01*
X35744667Y-38347090D01*
X35758250Y-38336332D01*
X35769242Y-38329527D01*
X35787720Y-38305055D01*
X35794551Y-38297206D01*
X37442432Y-36649326D01*
X37466829Y-36633024D01*
X37495607Y-36627300D01*
X39974393Y-36627300D01*
X40003171Y-36633024D01*
X40027567Y-36649326D01*
X40327074Y-36948833D01*
X40343376Y-36973229D01*
X40349100Y-37002007D01*
X40349100Y-39212709D01*
X40364042Y-39307054D01*
X40378622Y-39335668D01*
X40421984Y-39420771D01*
X40512229Y-39511016D01*
X40622047Y-39566971D01*
X40625945Y-39568957D01*
X40720291Y-39583900D01*
X40720292Y-39583900D01*
X41530993Y-39583900D01*
X41559771Y-39589624D01*
X41584167Y-39605926D01*
X41795698Y-39817457D01*
X41815913Y-39854227D01*
X41813278Y-39896104D01*
X41788615Y-39930051D01*
X41749601Y-39945497D01*
X41708385Y-39937635D01*
X41626876Y-39896104D01*
X41611054Y-39888042D01*
X41516709Y-39873100D01*
X41516708Y-39873100D01*
X40778292Y-39873100D01*
X40778291Y-39873100D01*
X40683945Y-39888042D01*
X40570227Y-39945985D01*
X40479985Y-40036227D01*
X40422042Y-40149945D01*
X40407100Y-40244291D01*
X40407100Y-41257709D01*
X40422042Y-41352054D01*
X40429230Y-41366160D01*
X40435783Y-41415935D01*
X40409551Y-41458741D01*
X40362226Y-41475500D01*
X40154408Y-41475500D01*
X40125630Y-41469776D01*
X40101234Y-41453474D01*
X39834926Y-41187166D01*
X39818624Y-41162770D01*
X39812900Y-41133992D01*
X39812900Y-40244291D01*
X39797957Y-40149945D01*
X39782151Y-40118924D01*
X39740016Y-40036229D01*
X39649771Y-39945984D01*
X39551876Y-39896104D01*
X39536054Y-39888042D01*
X39441709Y-39873100D01*
X39441708Y-39873100D01*
X38703292Y-39873100D01*
X38703291Y-39873100D01*
X38608945Y-39888042D01*
X38495227Y-39945985D01*
X38404985Y-40036227D01*
X38347042Y-40149945D01*
X38331174Y-40250138D01*
X38329584Y-40249886D01*
X38322025Y-40278100D01*
X38294500Y-40305625D01*
X38256900Y-40315700D01*
X37870099Y-40315700D01*
X37832499Y-40305625D01*
X37804974Y-40278100D01*
X37794899Y-40240500D01*
X37794899Y-40005943D01*
X37793134Y-39997072D01*
X37786028Y-39961342D01*
X37752234Y-39910766D01*
X37752233Y-39910765D01*
X37701658Y-39876971D01*
X37657057Y-39868100D01*
X33926942Y-39868100D01*
X33882341Y-39876972D01*
X33831765Y-39910766D01*
X33797971Y-39961341D01*
X33789100Y-40005942D01*
X33789100Y-41236057D01*
X33797972Y-41280658D01*
X33831766Y-41331234D01*
X33882341Y-41365028D01*
X33891212Y-41366792D01*
X33926943Y-41373900D01*
X37657056Y-41373899D01*
X37657057Y-41373899D01*
X37664456Y-41372427D01*
X37701658Y-41365028D01*
X37752234Y-41331234D01*
X37786028Y-41280658D01*
X37794900Y-41236057D01*
X37794900Y-41001500D01*
X37804975Y-40963900D01*
X37832500Y-40936375D01*
X37870100Y-40926300D01*
X38256900Y-40926300D01*
X38294500Y-40936375D01*
X38322025Y-40963900D01*
X38332100Y-41001500D01*
X38332100Y-41257709D01*
X38347042Y-41352054D01*
X38372647Y-41402305D01*
X38404984Y-41465771D01*
X38495229Y-41556016D01*
X38579702Y-41599057D01*
X38608945Y-41613957D01*
X38703291Y-41628900D01*
X38703292Y-41628900D01*
X39381993Y-41628900D01*
X39410771Y-41634624D01*
X39435167Y-41650926D01*
X39737029Y-41952788D01*
X39746068Y-41965348D01*
X39747932Y-41967048D01*
X39769273Y-42000930D01*
X39770198Y-42040963D01*
X39750444Y-42075794D01*
X39435166Y-42391074D01*
X39410769Y-42407376D01*
X39381991Y-42413100D01*
X38703291Y-42413100D01*
X38608945Y-42428042D01*
X38495227Y-42485985D01*
X38404985Y-42576227D01*
X38347042Y-42689945D01*
X38332100Y-42784291D01*
X38332100Y-43040500D01*
X38322025Y-43078100D01*
X38294500Y-43105625D01*
X38256900Y-43115700D01*
X37870099Y-43115700D01*
X37832499Y-43105625D01*
X37804974Y-43078100D01*
X37794899Y-43040500D01*
X37794899Y-42805943D01*
X37790866Y-42785666D01*
X37786028Y-42761342D01*
X37752234Y-42710766D01*
X37752233Y-42710765D01*
X37701658Y-42676971D01*
X37657057Y-42668100D01*
X33926942Y-42668100D01*
X33882341Y-42676972D01*
X33831765Y-42710766D01*
X33797971Y-42761341D01*
X33789100Y-42805942D01*
X33789100Y-44036057D01*
X33797972Y-44080658D01*
X33831766Y-44131234D01*
X33882341Y-44165028D01*
X33891212Y-44166792D01*
X33926943Y-44173900D01*
X37657056Y-44173899D01*
X37657057Y-44173899D01*
X37664456Y-44172427D01*
X37701658Y-44165028D01*
X37752234Y-44131234D01*
X37786028Y-44080658D01*
X37794900Y-44036057D01*
X37794900Y-43801500D01*
X37804975Y-43763900D01*
X37832500Y-43736375D01*
X37870100Y-43726300D01*
X38256900Y-43726300D01*
X38294500Y-43736375D01*
X38322025Y-43763900D01*
X38329584Y-43792113D01*
X38331174Y-43791862D01*
X38347042Y-43892054D01*
X38372646Y-43942304D01*
X38404984Y-44005771D01*
X38495229Y-44096016D01*
X38597823Y-44148290D01*
X38608945Y-44153957D01*
X38703291Y-44168900D01*
X38703292Y-44168900D01*
X39441708Y-44168900D01*
X39441709Y-44168900D01*
X39488881Y-44161428D01*
X39536055Y-44153957D01*
X39649771Y-44096016D01*
X39740016Y-44005771D01*
X39797957Y-43892055D01*
X39811439Y-43806935D01*
X39812900Y-43797709D01*
X39812900Y-42908007D01*
X39818624Y-42879229D01*
X39834926Y-42854833D01*
X40101233Y-42588526D01*
X40125629Y-42572224D01*
X40154407Y-42566500D01*
X40362226Y-42566500D01*
X40409551Y-42583259D01*
X40435783Y-42626065D01*
X40429230Y-42675840D01*
X40422042Y-42689945D01*
X40407100Y-42784291D01*
X40407100Y-43797709D01*
X40422042Y-43892054D01*
X40447646Y-43942304D01*
X40479984Y-44005771D01*
X40570229Y-44096016D01*
X40672823Y-44148290D01*
X40675975Y-44149896D01*
X40710127Y-44185417D01*
X40714957Y-44234455D01*
X40688391Y-44275956D01*
X40641835Y-44292100D01*
X40461200Y-44292100D01*
X40430548Y-44296135D01*
X40420331Y-44297480D01*
X40382731Y-44307555D01*
X40311944Y-44348425D01*
X40284425Y-44375944D01*
X40243555Y-44446731D01*
X40233480Y-44484331D01*
X40228100Y-44525203D01*
X40228100Y-46152797D01*
X40233480Y-46193668D01*
X40243555Y-46231268D01*
X40284425Y-46302055D01*
X40311944Y-46329574D01*
X40311946Y-46329575D01*
X40311948Y-46329577D01*
X40382732Y-46370445D01*
X40420332Y-46380520D01*
X40461200Y-46385900D01*
X40622209Y-46385900D01*
X40668765Y-46402044D01*
X40695331Y-46443545D01*
X40690501Y-46492583D01*
X40656349Y-46528104D01*
X40570227Y-46571985D01*
X40479985Y-46662227D01*
X40422042Y-46775945D01*
X40407100Y-46870291D01*
X40407100Y-47833709D01*
X40422042Y-47928054D01*
X40422043Y-47928055D01*
X40479984Y-48041771D01*
X40570229Y-48132016D01*
X40683944Y-48189956D01*
X40683945Y-48189957D01*
X40778291Y-48204900D01*
X40778292Y-48204900D01*
X41491708Y-48204900D01*
X41491709Y-48204900D01*
X41538881Y-48197428D01*
X41586055Y-48189957D01*
X41699771Y-48132016D01*
X41790016Y-48041771D01*
X41847957Y-47928055D01*
X41862900Y-47833708D01*
X41862900Y-47796971D01*
X41879659Y-47749646D01*
X41922466Y-47723414D01*
X41972241Y-47729968D01*
X42036693Y-47762809D01*
X42054099Y-47765565D01*
X42164000Y-47782972D01*
X42291306Y-47762809D01*
X42406151Y-47704292D01*
X42497292Y-47613151D01*
X42498897Y-47610001D01*
X42534417Y-47575850D01*
X42583455Y-47571020D01*
X42624956Y-47597586D01*
X42641100Y-47644142D01*
X42641100Y-49708797D01*
X42646480Y-49749668D01*
X42656555Y-49787268D01*
X42697425Y-49858055D01*
X42724944Y-49885574D01*
X42724946Y-49885575D01*
X42724948Y-49885577D01*
X42795732Y-49926445D01*
X42833332Y-49936520D01*
X42874200Y-49941900D01*
X45009797Y-49941900D01*
X45009800Y-49941900D01*
X45050668Y-49936520D01*
X45088268Y-49926445D01*
X45159052Y-49885577D01*
X45186577Y-49858052D01*
X45227445Y-49787268D01*
X45237520Y-49749668D01*
X45242900Y-49708800D01*
X45242900Y-47446200D01*
X45237520Y-47405332D01*
X45227445Y-47367732D01*
X45186577Y-47296948D01*
X45186575Y-47296946D01*
X45186574Y-47296944D01*
X45159055Y-47269425D01*
X45088268Y-47228555D01*
X45050668Y-47218480D01*
X45009800Y-47213100D01*
X45009797Y-47213100D01*
X44683100Y-47213100D01*
X44645500Y-47203025D01*
X44617975Y-47175500D01*
X44607900Y-47137900D01*
X44607900Y-44075370D01*
X44608400Y-44068999D01*
X44607900Y-44062630D01*
X44607900Y-43636203D01*
X44606301Y-43624054D01*
X44602520Y-43595332D01*
X44592445Y-43557732D01*
X44551577Y-43486948D01*
X44551575Y-43486946D01*
X44551574Y-43486944D01*
X44524055Y-43459425D01*
X44453268Y-43418555D01*
X44415668Y-43408480D01*
X44374800Y-43403100D01*
X44374797Y-43403100D01*
X44094342Y-43403100D01*
X44046635Y-43386030D01*
X44033381Y-43363916D01*
X44030987Y-43365516D01*
X44022677Y-43353079D01*
X44022677Y-43353078D01*
X43993076Y-43308776D01*
X43980404Y-43267000D01*
X43993076Y-43225223D01*
X44022677Y-43180922D01*
X44035900Y-43114447D01*
X44035899Y-42919554D01*
X44022677Y-42853078D01*
X43993076Y-42808776D01*
X43980404Y-42767000D01*
X43993076Y-42725223D01*
X44022677Y-42680922D01*
X44035900Y-42614447D01*
X44035899Y-42419554D01*
X44022677Y-42353078D01*
X43972307Y-42277693D01*
X43896922Y-42227323D01*
X43896921Y-42227322D01*
X43896920Y-42227322D01*
X43830447Y-42214100D01*
X43235321Y-42214100D01*
X43222481Y-42211700D01*
X43215070Y-42211700D01*
X42128213Y-42211700D01*
X42099435Y-42205976D01*
X42075039Y-42189674D01*
X41974577Y-42089212D01*
X41965539Y-42076651D01*
X41963671Y-42074948D01*
X41942331Y-42041066D01*
X41941407Y-42001033D01*
X41961159Y-41966204D01*
X42083039Y-41844325D01*
X42107436Y-41828024D01*
X42136214Y-41822300D01*
X43186289Y-41822300D01*
X43192279Y-41821180D01*
X43206100Y-41819899D01*
X43830447Y-41819899D01*
X43852604Y-41815491D01*
X43896922Y-41806677D01*
X43972307Y-41756307D01*
X44022677Y-41680922D01*
X44035900Y-41614447D01*
X44035899Y-41419554D01*
X44022677Y-41353078D01*
X43993076Y-41308776D01*
X43980404Y-41267000D01*
X43993076Y-41225223D01*
X44022677Y-41180922D01*
X44035900Y-41114447D01*
X44035899Y-40919554D01*
X44035777Y-40918943D01*
X44022677Y-40853079D01*
X44022677Y-40853078D01*
X43993076Y-40808776D01*
X43980404Y-40767000D01*
X43993076Y-40725223D01*
X44022677Y-40680922D01*
X44035900Y-40614447D01*
X44035899Y-40419554D01*
X44034429Y-40412168D01*
X44038711Y-40368720D01*
X44066408Y-40334973D01*
X44108186Y-40322300D01*
X45264931Y-40322300D01*
X45280195Y-40324789D01*
X45284087Y-40324609D01*
X45284090Y-40324610D01*
X45332318Y-40322380D01*
X45335792Y-40322300D01*
X45355283Y-40322300D01*
X45355289Y-40322300D01*
X45357146Y-40321952D01*
X45367467Y-40320754D01*
X45398109Y-40319338D01*
X45409938Y-40314114D01*
X45426489Y-40308989D01*
X45439197Y-40306615D01*
X45453232Y-40297923D01*
X45481052Y-40287587D01*
X45593306Y-40269809D01*
X45708151Y-40211292D01*
X45799292Y-40120151D01*
X45857809Y-40005306D01*
X45877972Y-39878000D01*
X45876524Y-39868863D01*
X45882101Y-39826513D01*
X45909842Y-39794032D01*
X45950799Y-39781900D01*
X48438797Y-39781900D01*
X48438800Y-39781900D01*
X48479668Y-39776520D01*
X48517268Y-39766445D01*
X48588052Y-39725577D01*
X48615577Y-39698052D01*
X48656445Y-39627268D01*
X48666520Y-39589668D01*
X48671900Y-39548800D01*
X48671900Y-39353681D01*
X48684573Y-39311902D01*
X48718322Y-39284205D01*
X48761770Y-39279926D01*
X48816941Y-39290900D01*
X48816943Y-39290900D01*
X49277700Y-39290900D01*
X49315300Y-39300975D01*
X49342825Y-39328500D01*
X49352900Y-39366100D01*
X49352900Y-40705901D01*
X49342825Y-40743501D01*
X49315300Y-40771026D01*
X49277700Y-40781101D01*
X48759943Y-40781101D01*
X48715341Y-40789972D01*
X48664765Y-40823766D01*
X48630971Y-40874341D01*
X48622100Y-40918943D01*
X48622100Y-41263109D01*
X48606158Y-41309407D01*
X48565091Y-41336076D01*
X48516312Y-41331807D01*
X48484059Y-41317446D01*
X48473692Y-41311817D01*
X48452935Y-41298338D01*
X48444402Y-41296986D01*
X48425586Y-41291412D01*
X48417697Y-41287900D01*
X48392946Y-41287900D01*
X48381182Y-41286974D01*
X48378830Y-41286601D01*
X48356742Y-41283102D01*
X48348401Y-41285338D01*
X48328938Y-41287900D01*
X48310394Y-41287900D01*
X48268617Y-41275227D01*
X48196922Y-41227323D01*
X48196921Y-41227322D01*
X48196920Y-41227322D01*
X48130447Y-41214100D01*
X46785553Y-41214100D01*
X46719079Y-41227322D01*
X46643693Y-41277693D01*
X46593322Y-41353079D01*
X46580100Y-41419552D01*
X46580100Y-41614446D01*
X46593322Y-41680920D01*
X46593322Y-41680921D01*
X46593323Y-41680922D01*
X46643693Y-41756307D01*
X46719078Y-41806677D01*
X46785553Y-41819900D01*
X48130446Y-41819899D01*
X48196922Y-41806677D01*
X48228190Y-41785784D01*
X48277337Y-41773473D01*
X48323141Y-41795137D01*
X49080730Y-42552726D01*
X49101311Y-42591229D01*
X49097032Y-42634678D01*
X49069335Y-42668427D01*
X49027556Y-42681100D01*
X48999245Y-42681100D01*
X48970467Y-42675376D01*
X48946071Y-42659074D01*
X48647630Y-42360633D01*
X48644920Y-42357778D01*
X48617669Y-42327513D01*
X48595058Y-42317445D01*
X48584692Y-42311817D01*
X48563935Y-42298338D01*
X48555402Y-42296986D01*
X48536586Y-42291412D01*
X48528697Y-42287900D01*
X48503946Y-42287900D01*
X48492182Y-42286974D01*
X48489830Y-42286601D01*
X48467742Y-42283102D01*
X48459401Y-42285338D01*
X48439938Y-42287900D01*
X48310394Y-42287900D01*
X48268617Y-42275227D01*
X48196922Y-42227323D01*
X48196921Y-42227322D01*
X48196920Y-42227322D01*
X48130447Y-42214100D01*
X46785553Y-42214100D01*
X46719079Y-42227322D01*
X46643693Y-42277693D01*
X46593322Y-42353079D01*
X46580100Y-42419552D01*
X46580100Y-42614446D01*
X46596241Y-42695593D01*
X46594237Y-42695991D01*
X46599513Y-42713661D01*
X46586102Y-42755868D01*
X46551262Y-42783208D01*
X46521753Y-42794534D01*
X46510445Y-42797884D01*
X46486233Y-42803031D01*
X46479245Y-42808108D01*
X46462003Y-42817470D01*
X46453936Y-42820567D01*
X46436432Y-42838070D01*
X46427464Y-42845730D01*
X46407440Y-42860278D01*
X46403124Y-42867755D01*
X46391174Y-42883328D01*
X46325622Y-42948879D01*
X46322769Y-42951587D01*
X46292514Y-42978830D01*
X46282447Y-43001438D01*
X46276821Y-43011799D01*
X46263338Y-43032564D01*
X46261986Y-43041097D01*
X46256414Y-43059909D01*
X46252900Y-43067803D01*
X46252900Y-43092554D01*
X46251974Y-43104319D01*
X46248102Y-43128757D01*
X46250338Y-43137099D01*
X46252900Y-43156562D01*
X46252900Y-43334857D01*
X46244704Y-43368997D01*
X46221901Y-43395695D01*
X46189464Y-43409131D01*
X46100695Y-43423190D01*
X45985846Y-43481709D01*
X45894709Y-43572846D01*
X45836190Y-43687694D01*
X45816028Y-43815000D01*
X45836190Y-43942305D01*
X45894709Y-44057153D01*
X45985846Y-44148290D01*
X45985848Y-44148291D01*
X45985849Y-44148292D01*
X46100694Y-44206809D01*
X46228000Y-44226972D01*
X46355306Y-44206809D01*
X46470151Y-44148292D01*
X46561292Y-44057151D01*
X46619809Y-43942306D01*
X46631430Y-43868927D01*
X46647888Y-43832604D01*
X46680603Y-43809803D01*
X46720375Y-43806935D01*
X46785553Y-43819900D01*
X47380674Y-43819899D01*
X47393517Y-43822300D01*
X47400930Y-43822300D01*
X48492500Y-43822300D01*
X48530100Y-43832375D01*
X48557625Y-43859900D01*
X48567700Y-43897500D01*
X48567700Y-44139900D01*
X48557625Y-44177500D01*
X48530100Y-44205025D01*
X48492500Y-44215100D01*
X47741291Y-44215100D01*
X47646945Y-44230042D01*
X47533227Y-44287985D01*
X47442985Y-44378227D01*
X47385042Y-44491945D01*
X47370100Y-44586291D01*
X47370100Y-45474709D01*
X47385042Y-45569054D01*
X47385043Y-45569055D01*
X47442984Y-45682771D01*
X47533229Y-45773016D01*
X47646945Y-45830957D01*
X47741291Y-45845900D01*
X47741292Y-45845900D01*
X50004708Y-45845900D01*
X50004709Y-45845900D01*
X50051881Y-45838428D01*
X50099055Y-45830957D01*
X50212771Y-45773016D01*
X50303016Y-45682771D01*
X50360957Y-45569055D01*
X50375900Y-45474708D01*
X50375900Y-44586292D01*
X50360957Y-44491945D01*
X50303016Y-44378229D01*
X50212771Y-44287984D01*
X50147055Y-44254500D01*
X50099054Y-44230042D01*
X50004709Y-44215100D01*
X50004708Y-44215100D01*
X49253500Y-44215100D01*
X49215900Y-44205025D01*
X49188375Y-44177500D01*
X49178300Y-44139900D01*
X49178300Y-43895294D01*
X49187803Y-43858702D01*
X49213911Y-43831358D01*
X49250024Y-43820174D01*
X49268109Y-43819338D01*
X49279938Y-43814114D01*
X49296489Y-43808989D01*
X49309197Y-43806615D01*
X49335262Y-43790474D01*
X49344473Y-43785618D01*
X49372525Y-43773234D01*
X49381667Y-43764090D01*
X49395250Y-43753332D01*
X49406242Y-43746527D01*
X49424720Y-43722055D01*
X49431544Y-43714213D01*
X49486836Y-43658921D01*
X49511230Y-43642623D01*
X49540007Y-43636899D01*
X50350057Y-43636899D01*
X50357456Y-43635427D01*
X50394658Y-43628028D01*
X50445234Y-43594234D01*
X50479028Y-43543658D01*
X50487900Y-43499057D01*
X50487899Y-42871442D01*
X50500572Y-42829664D01*
X50534321Y-42801967D01*
X50577770Y-42797688D01*
X50616273Y-42818269D01*
X51113359Y-43315355D01*
X51116069Y-43318210D01*
X51143330Y-43348486D01*
X51165933Y-43358550D01*
X51176301Y-43364178D01*
X51197064Y-43377662D01*
X51199516Y-43378050D01*
X51205593Y-43379013D01*
X51224416Y-43384588D01*
X51232303Y-43388100D01*
X51246901Y-43388100D01*
X51284501Y-43398175D01*
X51312026Y-43425700D01*
X51322101Y-43463300D01*
X51322101Y-43499057D01*
X51330972Y-43543658D01*
X51364766Y-43594234D01*
X51415341Y-43628028D01*
X51424213Y-43629792D01*
X51459943Y-43636900D01*
X53050056Y-43636899D01*
X53050057Y-43636899D01*
X53057456Y-43635427D01*
X53094658Y-43628028D01*
X53145234Y-43594234D01*
X53179028Y-43543658D01*
X53187900Y-43499057D01*
X53187900Y-43463300D01*
X53197975Y-43425700D01*
X53225500Y-43398175D01*
X53263100Y-43388100D01*
X53405900Y-43388100D01*
X53443500Y-43398175D01*
X53471025Y-43425700D01*
X53481100Y-43463300D01*
X53481100Y-43529709D01*
X53496042Y-43624054D01*
X53525013Y-43680913D01*
X53553984Y-43737771D01*
X53644229Y-43828016D01*
X53724522Y-43868927D01*
X53757945Y-43885957D01*
X53852291Y-43900900D01*
X53852292Y-43900900D01*
X54815708Y-43900900D01*
X54815709Y-43900900D01*
X54871560Y-43892054D01*
X54910055Y-43885957D01*
X55023771Y-43828016D01*
X55114016Y-43737771D01*
X55171957Y-43624055D01*
X55180068Y-43572846D01*
X55186900Y-43529709D01*
X55186900Y-42766291D01*
X55171957Y-42671945D01*
X55165399Y-42659074D01*
X55114016Y-42558229D01*
X55023771Y-42467984D01*
X54945382Y-42428043D01*
X54910054Y-42410042D01*
X54815709Y-42395100D01*
X54815708Y-42395100D01*
X53852292Y-42395100D01*
X53852291Y-42395100D01*
X53757945Y-42410042D01*
X53644227Y-42467985D01*
X53553985Y-42558227D01*
X53496042Y-42671945D01*
X53481100Y-42766291D01*
X53481100Y-42854700D01*
X53471025Y-42892300D01*
X53443500Y-42919825D01*
X53405900Y-42929900D01*
X53263099Y-42929900D01*
X53225499Y-42919825D01*
X53197974Y-42892300D01*
X53187899Y-42854700D01*
X53187899Y-42818943D01*
X53183671Y-42797688D01*
X53179028Y-42774342D01*
X53145234Y-42723766D01*
X53145233Y-42723765D01*
X53094658Y-42689971D01*
X53050057Y-42681100D01*
X51459942Y-42681100D01*
X51415341Y-42689972D01*
X51364766Y-42723765D01*
X51337565Y-42764474D01*
X51303816Y-42792170D01*
X51260368Y-42796449D01*
X51221865Y-42775868D01*
X50818630Y-42372633D01*
X50815920Y-42369778D01*
X50788669Y-42339513D01*
X50766058Y-42329445D01*
X50755692Y-42323817D01*
X50734935Y-42310338D01*
X50726402Y-42308986D01*
X50707586Y-42303412D01*
X50699697Y-42299900D01*
X50674946Y-42299900D01*
X50663182Y-42298974D01*
X50659173Y-42298339D01*
X50638742Y-42295102D01*
X50630401Y-42297338D01*
X50610938Y-42299900D01*
X49507044Y-42299900D01*
X49478266Y-42294176D01*
X49453870Y-42277874D01*
X49041270Y-41865273D01*
X49020689Y-41826770D01*
X49024968Y-41783321D01*
X49052665Y-41749572D01*
X49094444Y-41736899D01*
X50350057Y-41736899D01*
X50357456Y-41735427D01*
X50394658Y-41728028D01*
X50445234Y-41694234D01*
X50479028Y-41643658D01*
X50487900Y-41599057D01*
X50487899Y-41142243D01*
X50493623Y-41113466D01*
X50509922Y-41089073D01*
X50545544Y-41053451D01*
X50582311Y-41033238D01*
X50624188Y-41035873D01*
X50658135Y-41060535D01*
X50673582Y-41099549D01*
X50665721Y-41140765D01*
X50662190Y-41147693D01*
X50643911Y-41263109D01*
X50642028Y-41275000D01*
X50644071Y-41287900D01*
X50662190Y-41402305D01*
X50720709Y-41517153D01*
X50811846Y-41608290D01*
X50811848Y-41608291D01*
X50811849Y-41608292D01*
X50926694Y-41666809D01*
X51054000Y-41686972D01*
X51181306Y-41666809D01*
X51244960Y-41634375D01*
X51280081Y-41626185D01*
X51314980Y-41635292D01*
X51341624Y-41659600D01*
X51364766Y-41694234D01*
X51415341Y-41728028D01*
X51424213Y-41729792D01*
X51459943Y-41736900D01*
X53050056Y-41736899D01*
X53050057Y-41736899D01*
X53057456Y-41735427D01*
X53094658Y-41728028D01*
X53145234Y-41694234D01*
X53179028Y-41643658D01*
X53187900Y-41599057D01*
X53187899Y-40918944D01*
X53179028Y-40874342D01*
X53158137Y-40843077D01*
X53145556Y-40804990D01*
X53154345Y-40765851D01*
X53182004Y-40736799D01*
X53220665Y-40726100D01*
X53405900Y-40726100D01*
X53443500Y-40736175D01*
X53471025Y-40763700D01*
X53481100Y-40801300D01*
X53481100Y-41529709D01*
X53496042Y-41624054D01*
X53506031Y-41643658D01*
X53553984Y-41737771D01*
X53644229Y-41828016D01*
X53757945Y-41885957D01*
X53852291Y-41900900D01*
X53852292Y-41900900D01*
X54815708Y-41900900D01*
X54815709Y-41900900D01*
X54862881Y-41893428D01*
X54910055Y-41885957D01*
X55023771Y-41828016D01*
X55114016Y-41737771D01*
X55171957Y-41624055D01*
X55186900Y-41529708D01*
X55186900Y-40766292D01*
X55186489Y-40763700D01*
X55171957Y-40671945D01*
X55142660Y-40614447D01*
X55114016Y-40558229D01*
X55023771Y-40467984D01*
X54966913Y-40439013D01*
X54910054Y-40410042D01*
X54815709Y-40395100D01*
X54815708Y-40395100D01*
X53852292Y-40395100D01*
X53839893Y-40397063D01*
X53804893Y-40394307D01*
X53774959Y-40375962D01*
X53739630Y-40340633D01*
X53736920Y-40337778D01*
X53721808Y-40320995D01*
X53709670Y-40307514D01*
X53709669Y-40307513D01*
X53687058Y-40297445D01*
X53676692Y-40291817D01*
X53655935Y-40278338D01*
X53647402Y-40276986D01*
X53628586Y-40271412D01*
X53620697Y-40267900D01*
X53595946Y-40267900D01*
X53584182Y-40266974D01*
X53581830Y-40266601D01*
X53559742Y-40263102D01*
X53551401Y-40265338D01*
X53531938Y-40267900D01*
X50785967Y-40267900D01*
X50782033Y-40267797D01*
X50741361Y-40265666D01*
X50718254Y-40274535D01*
X50706946Y-40277884D01*
X50682734Y-40283031D01*
X50675746Y-40288108D01*
X50658503Y-40297470D01*
X50650436Y-40300566D01*
X50632932Y-40318070D01*
X50623964Y-40325729D01*
X50603942Y-40340277D01*
X50599622Y-40347759D01*
X50587673Y-40363329D01*
X50191929Y-40759074D01*
X50167533Y-40775376D01*
X50138755Y-40781100D01*
X49886300Y-40781100D01*
X49848700Y-40771025D01*
X49821175Y-40743500D01*
X49811100Y-40705900D01*
X49811100Y-39366099D01*
X49821175Y-39328499D01*
X49848700Y-39300974D01*
X49886300Y-39290899D01*
X50347057Y-39290899D01*
X50354456Y-39289427D01*
X50391658Y-39282028D01*
X50442234Y-39248234D01*
X50476028Y-39197658D01*
X50484900Y-39153057D01*
X50484899Y-37953057D01*
X52079100Y-37953057D01*
X52087972Y-37997658D01*
X52121766Y-38048234D01*
X52172341Y-38082028D01*
X52181213Y-38083792D01*
X52216943Y-38090900D01*
X53447056Y-38090899D01*
X53447057Y-38090899D01*
X53454456Y-38089427D01*
X53491658Y-38082028D01*
X53542234Y-38048234D01*
X53576028Y-37997658D01*
X53584900Y-37953057D01*
X53584899Y-36722944D01*
X53576028Y-36678342D01*
X53542234Y-36627766D01*
X53541537Y-36627300D01*
X53491658Y-36593971D01*
X53447057Y-36585100D01*
X52216942Y-36585100D01*
X52172341Y-36593972D01*
X52121765Y-36627766D01*
X52087971Y-36678341D01*
X52079100Y-36722942D01*
X52079100Y-37953057D01*
X50484899Y-37953057D01*
X50484899Y-37522944D01*
X50476028Y-37478342D01*
X50442234Y-37427766D01*
X50442233Y-37427765D01*
X50391658Y-37393971D01*
X50375989Y-37390855D01*
X50337486Y-37370274D01*
X50316905Y-37331771D01*
X50321184Y-37288322D01*
X50348881Y-37254573D01*
X50390660Y-37241900D01*
X51232797Y-37241900D01*
X51232800Y-37241900D01*
X51273668Y-37236520D01*
X51311268Y-37226445D01*
X51382052Y-37185577D01*
X51409577Y-37158052D01*
X51450445Y-37087268D01*
X51460520Y-37049668D01*
X51465900Y-37008800D01*
X51465900Y-25856700D01*
X51465900Y-25856699D01*
X51475975Y-25819100D01*
X51503500Y-25791575D01*
X51541100Y-25781500D01*
X56058300Y-25781500D01*
X56095900Y-25791575D01*
G37*
%TD.AperFunction*%
%TA.AperFunction,Conductor*%
G36*
X45778500Y-25791575D02*
G01*
X45806025Y-25819100D01*
X45816100Y-25856700D01*
X45816100Y-35230797D01*
X45821480Y-35271668D01*
X45831555Y-35309268D01*
X45872425Y-35380055D01*
X45899944Y-35407574D01*
X45899946Y-35407575D01*
X45899948Y-35407577D01*
X45970732Y-35448445D01*
X46008332Y-35458520D01*
X46049200Y-35463900D01*
X47010900Y-35463900D01*
X47048500Y-35473975D01*
X47076025Y-35501500D01*
X47086100Y-35539100D01*
X47086100Y-38628900D01*
X47076025Y-38666500D01*
X47048500Y-38694025D01*
X47010900Y-38704100D01*
X44525200Y-38704100D01*
X44494548Y-38708135D01*
X44484331Y-38709480D01*
X44462620Y-38715297D01*
X44446732Y-38719555D01*
X44446731Y-38719555D01*
X44446729Y-38719556D01*
X44435700Y-38725924D01*
X44398100Y-38735999D01*
X44360500Y-38725924D01*
X44332975Y-38698399D01*
X44322900Y-38660799D01*
X44322900Y-35520100D01*
X44332975Y-35482500D01*
X44360500Y-35454975D01*
X44398100Y-35444900D01*
X44851797Y-35444900D01*
X44851800Y-35444900D01*
X44892668Y-35439520D01*
X44930268Y-35429445D01*
X45001052Y-35388577D01*
X45028577Y-35361052D01*
X45069445Y-35290268D01*
X45079520Y-35252668D01*
X45084900Y-35211800D01*
X45084900Y-25856700D01*
X45084900Y-25856699D01*
X45094975Y-25819100D01*
X45122500Y-25791575D01*
X45160100Y-25781500D01*
X45740900Y-25781500D01*
X45778500Y-25791575D01*
G37*
%TD.AperFunction*%
%TD*%
M02*
