%TF.GenerationSoftware,KiCad,Pcbnew,7.0.1-0*%
%TF.CreationDate,2023-04-04T18:33:11-07:00*%
%TF.ProjectId,ULD_Test_Board,554c445f-5465-4737-945f-426f6172642e,A*%
%TF.SameCoordinates,Original*%
%TF.FileFunction,Legend,Bot*%
%TF.FilePolarity,Positive*%
%FSLAX46Y46*%
G04 Gerber Fmt 4.6, Leading zero omitted, Abs format (unit mm)*
G04 Created by KiCad (PCBNEW 7.0.1-0) date 2023-04-04 18:33:11*
%MOMM*%
%LPD*%
G01*
G04 APERTURE LIST*
%ADD10C,0.152400*%
G04 APERTURE END LIST*
D10*
X49426585Y-26747397D02*
X49426585Y-27549311D01*
X49426585Y-27549311D02*
X49379414Y-27643654D01*
X49379414Y-27643654D02*
X49332243Y-27690826D01*
X49332243Y-27690826D02*
X49237900Y-27737997D01*
X49237900Y-27737997D02*
X49049214Y-27737997D01*
X49049214Y-27737997D02*
X48954871Y-27690826D01*
X48954871Y-27690826D02*
X48907700Y-27643654D01*
X48907700Y-27643654D02*
X48860528Y-27549311D01*
X48860528Y-27549311D02*
X48860528Y-26747397D01*
X47917100Y-27737997D02*
X48388814Y-27737997D01*
X48388814Y-27737997D02*
X48388814Y-26747397D01*
X47586900Y-27737997D02*
X47586900Y-26747397D01*
X47586900Y-26747397D02*
X47351043Y-26747397D01*
X47351043Y-26747397D02*
X47209529Y-26794568D01*
X47209529Y-26794568D02*
X47115186Y-26888911D01*
X47115186Y-26888911D02*
X47068015Y-26983254D01*
X47068015Y-26983254D02*
X47020843Y-27171940D01*
X47020843Y-27171940D02*
X47020843Y-27313454D01*
X47020843Y-27313454D02*
X47068015Y-27502140D01*
X47068015Y-27502140D02*
X47115186Y-27596483D01*
X47115186Y-27596483D02*
X47209529Y-27690826D01*
X47209529Y-27690826D02*
X47351043Y-27737997D01*
X47351043Y-27737997D02*
X47586900Y-27737997D01*
X45983072Y-26747397D02*
X45417015Y-26747397D01*
X45700043Y-27737997D02*
X45700043Y-26747397D01*
X44709443Y-27690826D02*
X44803786Y-27737997D01*
X44803786Y-27737997D02*
X44992472Y-27737997D01*
X44992472Y-27737997D02*
X45086814Y-27690826D01*
X45086814Y-27690826D02*
X45133986Y-27596483D01*
X45133986Y-27596483D02*
X45133986Y-27219111D01*
X45133986Y-27219111D02*
X45086814Y-27124768D01*
X45086814Y-27124768D02*
X44992472Y-27077597D01*
X44992472Y-27077597D02*
X44803786Y-27077597D01*
X44803786Y-27077597D02*
X44709443Y-27124768D01*
X44709443Y-27124768D02*
X44662272Y-27219111D01*
X44662272Y-27219111D02*
X44662272Y-27313454D01*
X44662272Y-27313454D02*
X45133986Y-27407797D01*
X44284900Y-27690826D02*
X44190557Y-27737997D01*
X44190557Y-27737997D02*
X44001871Y-27737997D01*
X44001871Y-27737997D02*
X43907528Y-27690826D01*
X43907528Y-27690826D02*
X43860357Y-27596483D01*
X43860357Y-27596483D02*
X43860357Y-27549311D01*
X43860357Y-27549311D02*
X43907528Y-27454968D01*
X43907528Y-27454968D02*
X44001871Y-27407797D01*
X44001871Y-27407797D02*
X44143386Y-27407797D01*
X44143386Y-27407797D02*
X44237728Y-27360626D01*
X44237728Y-27360626D02*
X44284900Y-27266283D01*
X44284900Y-27266283D02*
X44284900Y-27219111D01*
X44284900Y-27219111D02*
X44237728Y-27124768D01*
X44237728Y-27124768D02*
X44143386Y-27077597D01*
X44143386Y-27077597D02*
X44001871Y-27077597D01*
X44001871Y-27077597D02*
X43907528Y-27124768D01*
X43577329Y-27077597D02*
X43199957Y-27077597D01*
X43435814Y-26747397D02*
X43435814Y-27596483D01*
X43435814Y-27596483D02*
X43388643Y-27690826D01*
X43388643Y-27690826D02*
X43294300Y-27737997D01*
X43294300Y-27737997D02*
X43199957Y-27737997D01*
X41784814Y-27219111D02*
X41643300Y-27266283D01*
X41643300Y-27266283D02*
X41596129Y-27313454D01*
X41596129Y-27313454D02*
X41548957Y-27407797D01*
X41548957Y-27407797D02*
X41548957Y-27549311D01*
X41548957Y-27549311D02*
X41596129Y-27643654D01*
X41596129Y-27643654D02*
X41643300Y-27690826D01*
X41643300Y-27690826D02*
X41737643Y-27737997D01*
X41737643Y-27737997D02*
X42115014Y-27737997D01*
X42115014Y-27737997D02*
X42115014Y-26747397D01*
X42115014Y-26747397D02*
X41784814Y-26747397D01*
X41784814Y-26747397D02*
X41690472Y-26794568D01*
X41690472Y-26794568D02*
X41643300Y-26841740D01*
X41643300Y-26841740D02*
X41596129Y-26936083D01*
X41596129Y-26936083D02*
X41596129Y-27030426D01*
X41596129Y-27030426D02*
X41643300Y-27124768D01*
X41643300Y-27124768D02*
X41690472Y-27171940D01*
X41690472Y-27171940D02*
X41784814Y-27219111D01*
X41784814Y-27219111D02*
X42115014Y-27219111D01*
X40982900Y-27737997D02*
X41077243Y-27690826D01*
X41077243Y-27690826D02*
X41124414Y-27643654D01*
X41124414Y-27643654D02*
X41171586Y-27549311D01*
X41171586Y-27549311D02*
X41171586Y-27266283D01*
X41171586Y-27266283D02*
X41124414Y-27171940D01*
X41124414Y-27171940D02*
X41077243Y-27124768D01*
X41077243Y-27124768D02*
X40982900Y-27077597D01*
X40982900Y-27077597D02*
X40841386Y-27077597D01*
X40841386Y-27077597D02*
X40747043Y-27124768D01*
X40747043Y-27124768D02*
X40699872Y-27171940D01*
X40699872Y-27171940D02*
X40652700Y-27266283D01*
X40652700Y-27266283D02*
X40652700Y-27549311D01*
X40652700Y-27549311D02*
X40699872Y-27643654D01*
X40699872Y-27643654D02*
X40747043Y-27690826D01*
X40747043Y-27690826D02*
X40841386Y-27737997D01*
X40841386Y-27737997D02*
X40982900Y-27737997D01*
X39803615Y-27737997D02*
X39803615Y-27219111D01*
X39803615Y-27219111D02*
X39850786Y-27124768D01*
X39850786Y-27124768D02*
X39945129Y-27077597D01*
X39945129Y-27077597D02*
X40133815Y-27077597D01*
X40133815Y-27077597D02*
X40228157Y-27124768D01*
X39803615Y-27690826D02*
X39897957Y-27737997D01*
X39897957Y-27737997D02*
X40133815Y-27737997D01*
X40133815Y-27737997D02*
X40228157Y-27690826D01*
X40228157Y-27690826D02*
X40275329Y-27596483D01*
X40275329Y-27596483D02*
X40275329Y-27502140D01*
X40275329Y-27502140D02*
X40228157Y-27407797D01*
X40228157Y-27407797D02*
X40133815Y-27360626D01*
X40133815Y-27360626D02*
X39897957Y-27360626D01*
X39897957Y-27360626D02*
X39803615Y-27313454D01*
X39331900Y-27737997D02*
X39331900Y-27077597D01*
X39331900Y-27266283D02*
X39284729Y-27171940D01*
X39284729Y-27171940D02*
X39237558Y-27124768D01*
X39237558Y-27124768D02*
X39143215Y-27077597D01*
X39143215Y-27077597D02*
X39048872Y-27077597D01*
X38294129Y-27737997D02*
X38294129Y-26747397D01*
X38294129Y-27690826D02*
X38388471Y-27737997D01*
X38388471Y-27737997D02*
X38577157Y-27737997D01*
X38577157Y-27737997D02*
X38671500Y-27690826D01*
X38671500Y-27690826D02*
X38718671Y-27643654D01*
X38718671Y-27643654D02*
X38765843Y-27549311D01*
X38765843Y-27549311D02*
X38765843Y-27266283D01*
X38765843Y-27266283D02*
X38718671Y-27171940D01*
X38718671Y-27171940D02*
X38671500Y-27124768D01*
X38671500Y-27124768D02*
X38577157Y-27077597D01*
X38577157Y-27077597D02*
X38388471Y-27077597D01*
X38388471Y-27077597D02*
X38294129Y-27124768D01*
X36501614Y-27737997D02*
X36831814Y-27266283D01*
X37067671Y-27737997D02*
X37067671Y-26747397D01*
X37067671Y-26747397D02*
X36690300Y-26747397D01*
X36690300Y-26747397D02*
X36595957Y-26794568D01*
X36595957Y-26794568D02*
X36548786Y-26841740D01*
X36548786Y-26841740D02*
X36501614Y-26936083D01*
X36501614Y-26936083D02*
X36501614Y-27077597D01*
X36501614Y-27077597D02*
X36548786Y-27171940D01*
X36548786Y-27171940D02*
X36595957Y-27219111D01*
X36595957Y-27219111D02*
X36690300Y-27266283D01*
X36690300Y-27266283D02*
X37067671Y-27266283D01*
X35699700Y-27690826D02*
X35794043Y-27737997D01*
X35794043Y-27737997D02*
X35982729Y-27737997D01*
X35982729Y-27737997D02*
X36077071Y-27690826D01*
X36077071Y-27690826D02*
X36124243Y-27596483D01*
X36124243Y-27596483D02*
X36124243Y-27219111D01*
X36124243Y-27219111D02*
X36077071Y-27124768D01*
X36077071Y-27124768D02*
X35982729Y-27077597D01*
X35982729Y-27077597D02*
X35794043Y-27077597D01*
X35794043Y-27077597D02*
X35699700Y-27124768D01*
X35699700Y-27124768D02*
X35652529Y-27219111D01*
X35652529Y-27219111D02*
X35652529Y-27313454D01*
X35652529Y-27313454D02*
X36124243Y-27407797D01*
X35322328Y-27077597D02*
X35086471Y-27737997D01*
X35086471Y-27737997D02*
X34850614Y-27077597D01*
X34473242Y-27643654D02*
X34426071Y-27690826D01*
X34426071Y-27690826D02*
X34473242Y-27737997D01*
X34473242Y-27737997D02*
X34520414Y-27690826D01*
X34520414Y-27690826D02*
X34473242Y-27643654D01*
X34473242Y-27643654D02*
X34473242Y-27737997D01*
X33293957Y-27454968D02*
X32822243Y-27454968D01*
X33388300Y-27737997D02*
X33058100Y-26747397D01*
X33058100Y-26747397D02*
X32727900Y-27737997D01*
X44898129Y-29059740D02*
X44426415Y-29059740D01*
X44992472Y-29342769D02*
X44662272Y-28352169D01*
X44662272Y-28352169D02*
X44332072Y-29342769D01*
X44001871Y-28682369D02*
X44001871Y-29672969D01*
X44001871Y-28729540D02*
X43907529Y-28682369D01*
X43907529Y-28682369D02*
X43718843Y-28682369D01*
X43718843Y-28682369D02*
X43624500Y-28729540D01*
X43624500Y-28729540D02*
X43577329Y-28776712D01*
X43577329Y-28776712D02*
X43530157Y-28871055D01*
X43530157Y-28871055D02*
X43530157Y-29154083D01*
X43530157Y-29154083D02*
X43577329Y-29248426D01*
X43577329Y-29248426D02*
X43624500Y-29295598D01*
X43624500Y-29295598D02*
X43718843Y-29342769D01*
X43718843Y-29342769D02*
X43907529Y-29342769D01*
X43907529Y-29342769D02*
X44001871Y-29295598D01*
X43105614Y-29342769D02*
X43105614Y-28682369D01*
X43105614Y-28871055D02*
X43058443Y-28776712D01*
X43058443Y-28776712D02*
X43011272Y-28729540D01*
X43011272Y-28729540D02*
X42916929Y-28682369D01*
X42916929Y-28682369D02*
X42822586Y-28682369D01*
X42492385Y-29342769D02*
X42492385Y-28682369D01*
X42492385Y-28352169D02*
X42539557Y-28399340D01*
X42539557Y-28399340D02*
X42492385Y-28446512D01*
X42492385Y-28446512D02*
X42445214Y-28399340D01*
X42445214Y-28399340D02*
X42492385Y-28352169D01*
X42492385Y-28352169D02*
X42492385Y-28446512D01*
X41879157Y-29342769D02*
X41973500Y-29295598D01*
X41973500Y-29295598D02*
X42020671Y-29201255D01*
X42020671Y-29201255D02*
X42020671Y-28352169D01*
X40794214Y-28446512D02*
X40747042Y-28399340D01*
X40747042Y-28399340D02*
X40652700Y-28352169D01*
X40652700Y-28352169D02*
X40416842Y-28352169D01*
X40416842Y-28352169D02*
X40322500Y-28399340D01*
X40322500Y-28399340D02*
X40275328Y-28446512D01*
X40275328Y-28446512D02*
X40228157Y-28540855D01*
X40228157Y-28540855D02*
X40228157Y-28635198D01*
X40228157Y-28635198D02*
X40275328Y-28776712D01*
X40275328Y-28776712D02*
X40841385Y-29342769D01*
X40841385Y-29342769D02*
X40228157Y-29342769D01*
X39614928Y-28352169D02*
X39520585Y-28352169D01*
X39520585Y-28352169D02*
X39426242Y-28399340D01*
X39426242Y-28399340D02*
X39379071Y-28446512D01*
X39379071Y-28446512D02*
X39331899Y-28540855D01*
X39331899Y-28540855D02*
X39284728Y-28729540D01*
X39284728Y-28729540D02*
X39284728Y-28965398D01*
X39284728Y-28965398D02*
X39331899Y-29154083D01*
X39331899Y-29154083D02*
X39379071Y-29248426D01*
X39379071Y-29248426D02*
X39426242Y-29295598D01*
X39426242Y-29295598D02*
X39520585Y-29342769D01*
X39520585Y-29342769D02*
X39614928Y-29342769D01*
X39614928Y-29342769D02*
X39709271Y-29295598D01*
X39709271Y-29295598D02*
X39756442Y-29248426D01*
X39756442Y-29248426D02*
X39803613Y-29154083D01*
X39803613Y-29154083D02*
X39850785Y-28965398D01*
X39850785Y-28965398D02*
X39850785Y-28729540D01*
X39850785Y-28729540D02*
X39803613Y-28540855D01*
X39803613Y-28540855D02*
X39756442Y-28446512D01*
X39756442Y-28446512D02*
X39709271Y-28399340D01*
X39709271Y-28399340D02*
X39614928Y-28352169D01*
X38907356Y-28446512D02*
X38860184Y-28399340D01*
X38860184Y-28399340D02*
X38765842Y-28352169D01*
X38765842Y-28352169D02*
X38529984Y-28352169D01*
X38529984Y-28352169D02*
X38435642Y-28399340D01*
X38435642Y-28399340D02*
X38388470Y-28446512D01*
X38388470Y-28446512D02*
X38341299Y-28540855D01*
X38341299Y-28540855D02*
X38341299Y-28635198D01*
X38341299Y-28635198D02*
X38388470Y-28776712D01*
X38388470Y-28776712D02*
X38954527Y-29342769D01*
X38954527Y-29342769D02*
X38341299Y-29342769D01*
X38011098Y-28352169D02*
X37397870Y-28352169D01*
X37397870Y-28352169D02*
X37728070Y-28729540D01*
X37728070Y-28729540D02*
X37586555Y-28729540D01*
X37586555Y-28729540D02*
X37492213Y-28776712D01*
X37492213Y-28776712D02*
X37445041Y-28823883D01*
X37445041Y-28823883D02*
X37397870Y-28918226D01*
X37397870Y-28918226D02*
X37397870Y-29154083D01*
X37397870Y-29154083D02*
X37445041Y-29248426D01*
X37445041Y-29248426D02*
X37492213Y-29295598D01*
X37492213Y-29295598D02*
X37586555Y-29342769D01*
X37586555Y-29342769D02*
X37869584Y-29342769D01*
X37869584Y-29342769D02*
X37963927Y-29295598D01*
X37963927Y-29295598D02*
X38011098Y-29248426D01*
M02*
